<svg width="521" height="130" viewBox="0 0 500 130" fill="none" xmlns="http://www.w3.org/2000/svg">
<rect x="34" y="17" width="96" height="96" rx="24" fill="#214392"/>
<path fill-rule="evenodd" clip-rule="evenodd" d="M114.4 65.0001C114.4 82.8941 99.8941 97.4001 82.0001 97.4001C64.1061 97.4001 49.6001 82.8941 49.6001 65.0001C49.6001 47.1061 64.1061 32.6001 82.0001 32.6001C99.8941 32.6001 114.4 47.1061 114.4 65.0001ZM104.978 82.3653C108.632 77.5374 110.8 71.5219 110.8 65.0001C110.8 58.6221 108.727 52.7284 105.218 47.956C105.206 48.2523 105.182 48.5498 105.147 48.8468C104.895 50.9745 104.041 53.4063 102.763 55.962C101.355 58.7787 99.3741 61.8596 96.9267 65.0127C99.2622 68.0557 101.158 71.0252 102.52 73.748C103.798 76.3037 104.652 78.7355 104.904 80.8632C104.963 81.3653 104.991 81.869 104.978 82.3653ZM94.6001 62.1304C96.6794 59.3822 98.3501 56.7383 99.5432 54.352C100.722 51.994 101.388 49.9807 101.572 48.4231C101.76 46.8399 101.425 46.0452 101.045 45.6651C100.665 45.285 99.8703 44.9502 98.2871 45.1379C96.7295 45.3225 94.7162 45.9879 92.3582 47.167C89.9732 48.3594 87.3309 50.029 84.5843 52.1067C86.3177 53.5773 88.0569 55.1781 89.7708 56.892C91.5017 58.623 93.1174 60.3798 94.6001 62.1304ZM81.7143 54.397C83.5417 55.9187 85.3929 57.6053 87.2252 59.4376C89.0749 61.2873 90.7762 63.1563 92.3092 65.0007C90.8401 66.7504 89.221 68.5201 87.4686 70.2724C85.5546 72.1864 83.6199 73.9415 81.7133 75.5157C79.8832 73.9922 78.0292 72.3034 76.1943 70.4684C74.3768 68.6509 72.7027 66.8148 71.1905 65.0017C72.7658 63.0935 74.5222 61.1571 76.4378 59.2416C78.1917 57.4876 79.963 55.8671 81.7143 54.397ZM81.7046 49.778C84.8552 47.3331 87.9336 45.3543 90.7482 43.947C93.3039 42.6692 95.7357 41.8151 97.8634 41.5629C98.1252 41.5319 98.3875 41.5095 98.6489 41.4971C93.9481 38.1612 88.2031 36.2001 82.0001 36.2001C75.6747 36.2001 69.8256 38.2393 65.0743 41.6961C65.3158 41.709 65.5578 41.7303 65.7996 41.7589C67.9272 42.0111 70.3591 42.8652 72.9147 44.143C75.6538 45.5125 78.6425 47.4232 81.7046 49.778ZM58.458 48.4065C55.1458 53.097 53.2001 58.8213 53.2001 65.0001C53.2001 71.3168 55.2337 77.1585 58.6819 81.9063C58.6828 81.4955 58.7101 81.0808 58.7591 80.6672C59.0113 78.5395 59.8654 76.1077 61.1432 73.552C62.4752 70.888 64.3191 67.9879 66.5855 65.0138C64.2074 61.9287 62.2791 58.9167 60.8998 56.158C59.6219 53.6023 58.7678 51.1705 58.5157 49.0428C58.4905 48.8308 58.4711 48.6184 58.458 48.4065ZM68.9067 62.1192C66.8998 59.4454 65.2828 56.8743 64.1197 54.548C62.9407 52.19 62.2752 50.1767 62.0906 48.6191C61.903 47.0359 62.2378 46.2412 62.6179 45.8611C62.998 45.481 63.7926 45.1462 65.3759 45.3339C66.9335 45.5185 68.9467 46.1839 71.3048 47.363C73.6189 48.52 76.1754 50.1263 78.8343 52.1187C77.1819 53.5319 75.5255 55.0626 73.8922 56.696C72.1003 58.4879 70.4319 60.3075 68.9067 62.1192ZM68.922 67.8965C67.0205 70.4606 65.4819 72.9245 64.3632 75.162C63.1841 77.52 62.5187 79.5333 62.3341 81.0909C62.1464 82.6741 62.4812 83.4688 62.8613 83.8489C63.2414 84.229 64.0361 84.5637 65.6193 84.3761C67.1769 84.1915 69.1902 83.526 71.5482 82.347C73.7869 81.2276 76.2525 79.6879 78.8181 77.7848C77.0904 76.3182 75.357 74.7222 73.6487 73.014C71.9576 71.3229 70.3766 69.6071 68.922 67.8965ZM81.7035 80.1193C78.7269 82.3882 75.8243 84.2339 73.1582 85.567C70.6025 86.8448 68.1707 87.6989 66.043 87.9511C65.5949 88.0042 65.1454 88.0318 64.7011 88.028C69.5178 91.6521 75.5081 93.8001 82.0001 93.8001C88.3748 93.8001 94.2657 91.729 99.0368 88.223C98.5681 88.2309 98.0933 88.2032 97.6199 88.1471C95.4923 87.8949 93.0604 87.0408 90.5048 85.763C87.7623 84.3917 84.7696 82.478 81.7035 80.1193ZM84.5984 77.7972C86.4077 76.2737 88.2248 74.6075 90.0142 72.818C91.6451 71.1871 93.1737 69.5332 94.5851 67.8833C96.5585 70.5225 98.1507 73.0597 99.2998 75.358C100.479 77.716 101.144 79.7293 101.329 81.2869C101.516 82.8701 101.182 83.6648 100.802 84.0449C100.422 84.425 99.6269 84.7597 98.0436 84.5721C96.486 84.3875 94.4728 83.722 92.1147 82.543C89.8044 81.3879 87.2525 79.785 84.5984 77.7972Z" fill="white"/>
<path d="M48.4429 31.4428L51.1326 41.481L58.4811 34.1326L48.4429 31.4428Z" fill="white"/>
<path d="M231.295 31.4646C233.343 31.4646 235.001 32.0891 236.27 33.338C237.54 34.5664 238.175 36.3476 238.175 38.6815V48.6009H235.411V39.0808C235.411 37.4019 234.991 36.1223 234.151 35.242C233.312 34.3412 232.165 33.8907 230.712 33.8907C229.238 33.8907 228.061 34.3514 227.18 35.2727C226.32 36.194 225.89 37.535 225.89 39.2957V48.6009H223.096V31.7717H225.89V34.1671C226.443 33.3072 227.19 32.6419 228.132 32.171C229.094 31.7001 230.149 31.4646 231.295 31.4646Z" fill="#214392"/>
<path d="M244.183 29.0385C243.651 29.0385 243.2 28.8543 242.832 28.4857C242.463 28.1172 242.279 27.6668 242.279 27.1345C242.279 26.6022 242.463 26.1518 242.832 25.7833C243.2 25.4147 243.651 25.2305 244.183 25.2305C244.695 25.2305 245.125 25.4147 245.473 25.7833C245.841 26.1518 246.026 26.6022 246.026 27.1345C246.026 27.6668 245.841 28.1172 245.473 28.4857C245.125 28.8543 244.695 29.0385 244.183 29.0385ZM245.534 31.7717V48.6009H242.74V31.7717H245.534Z" fill="#214392"/>
<path d="M270.535 31.4646C271.846 31.4646 273.013 31.741 274.036 32.2938C275.06 32.8261 275.869 33.6348 276.463 34.7199C277.056 35.805 277.353 37.1255 277.353 38.6815V48.6009H274.589V39.0808C274.589 37.4019 274.17 36.1223 273.33 35.242C272.511 34.3412 271.395 33.8907 269.983 33.8907C268.529 33.8907 267.372 34.3616 266.512 35.3034C265.652 36.2247 265.223 37.5657 265.223 39.3264V48.6009H262.459V39.0808C262.459 37.4019 262.039 36.1223 261.2 35.242C260.381 34.3412 259.265 33.8907 257.852 33.8907C256.398 33.8907 255.242 34.3616 254.382 35.3034C253.522 36.2247 253.092 37.5657 253.092 39.3264V48.6009H250.297V31.7717H253.092V34.1978C253.645 33.3175 254.382 32.6419 255.303 32.171C256.245 31.7001 257.279 31.4646 258.405 31.4646C259.818 31.4646 261.066 31.782 262.152 32.4166C263.237 33.0513 264.045 33.9829 264.578 35.2113C265.049 34.0238 265.827 33.1025 266.912 32.4474C267.997 31.7922 269.205 31.4646 270.535 31.4646Z" fill="#214392"/>
<path d="M284.732 34.9042C285.305 33.901 286.145 33.082 287.25 32.4474C288.356 31.8127 289.615 31.4953 291.028 31.4953C292.543 31.4953 293.904 31.8536 295.112 32.5702C296.32 33.2868 297.272 34.3002 297.968 35.6105C298.664 36.9003 299.012 38.4051 299.012 40.1249C299.012 41.8242 298.664 43.3392 297.968 44.67C297.272 46.0008 296.31 47.0347 295.082 47.7717C293.874 48.5088 292.522 48.8773 291.028 48.8773C289.574 48.8773 288.294 48.56 287.189 47.9253C286.104 47.2906 285.285 46.4819 284.732 45.4992V48.6009H281.937V25.8754H284.732V34.9042ZM296.156 40.1249C296.156 38.8555 295.9 37.75 295.389 36.8082C294.877 35.8664 294.181 35.1499 293.3 34.6585C292.44 34.1671 291.488 33.9214 290.444 33.9214C289.421 33.9214 288.469 34.1774 287.588 34.6892C286.728 35.1806 286.032 35.9074 285.5 36.8696C284.988 37.8114 284.732 38.9067 284.732 40.1556C284.732 41.425 284.988 42.5408 285.5 43.503C286.032 44.4448 286.728 45.1716 287.588 45.6834C288.469 46.1748 289.421 46.4205 290.444 46.4205C291.488 46.4205 292.44 46.1748 293.3 45.6834C294.181 45.1716 294.877 44.4448 295.389 43.503C295.9 42.5408 296.156 41.4147 296.156 40.1249Z" fill="#214392"/>
<path d="M317.616 31.7717V48.6009H314.822V46.1134C314.289 46.9733 313.542 47.6489 312.58 48.1403C311.638 48.6111 310.594 48.8466 309.447 48.8466C308.137 48.8466 306.96 48.5804 305.916 48.0481C304.871 47.4953 304.042 46.6764 303.428 45.5913C302.834 44.5062 302.537 43.1857 302.537 41.6297V31.7717H305.301V41.2612C305.301 42.9195 305.721 44.1991 306.56 45.0999C307.4 45.9803 308.546 46.4205 310 46.4205C311.495 46.4205 312.672 45.9598 313.532 45.0385C314.392 44.1172 314.822 42.7762 314.822 41.0155V31.7717H317.616Z" fill="#214392"/>
<path d="M328.293 48.8773C327.003 48.8773 325.846 48.6623 324.822 48.2324C323.799 47.782 322.99 47.1678 322.396 46.3898C321.803 45.5913 321.475 44.6802 321.414 43.6566H324.3C324.382 44.496 324.771 45.1818 325.467 45.7142C326.184 46.2465 327.115 46.5126 328.262 46.5126C329.327 46.5126 330.166 46.2772 330.78 45.8063C331.394 45.3354 331.702 44.7417 331.702 44.0251C331.702 43.288 331.374 42.7455 330.719 42.3975C330.064 42.0289 329.05 41.6706 327.678 41.3226C326.43 40.995 325.406 40.6674 324.607 40.3399C323.829 39.9918 323.154 39.4902 322.581 38.8351C322.028 38.1595 321.751 37.2791 321.751 36.194C321.751 35.3341 322.007 34.5459 322.519 33.8293C323.031 33.1127 323.758 32.5497 324.7 32.1403C325.641 31.7103 326.716 31.4953 327.924 31.4953C329.787 31.4953 331.292 31.9662 332.439 32.908C333.585 33.8498 334.199 35.1396 334.281 36.7775H331.487C331.425 35.8971 331.067 35.1908 330.412 34.6585C329.777 34.1262 328.917 33.86 327.832 33.86C326.829 33.86 326.03 34.075 325.437 34.5049C324.843 34.9349 324.546 35.4979 324.546 36.194C324.546 36.7468 324.72 37.2074 325.068 37.576C325.437 37.924 325.887 38.2106 326.419 38.4358C326.972 38.6406 327.73 38.876 328.692 39.1422C329.9 39.4697 330.883 39.7973 331.64 40.1249C332.398 40.432 333.043 40.9029 333.575 41.5376C334.128 42.1722 334.414 43.0014 334.435 44.0251C334.435 44.9464 334.179 45.7756 333.667 46.5126C333.155 47.2497 332.428 47.8332 331.487 48.2631C330.565 48.6726 329.501 48.8773 328.293 48.8773Z" fill="#214392"/>
<path d="M148 40.1861C148 38.4868 148.348 36.982 149.044 35.6718C149.761 34.3614 150.723 33.348 151.931 32.6314C153.159 31.8944 154.521 31.5259 156.015 31.5259C157.121 31.5259 158.206 31.7716 159.271 32.2629C160.356 32.7338 161.216 33.3685 161.85 34.167V25.998H165.382V48.7236H161.85V46.1746C161.277 46.9936 160.479 47.6692 159.455 48.2015C158.452 48.7338 157.295 49 155.985 49C154.511 49 153.159 48.6314 151.931 47.8944C150.723 47.1369 149.761 46.0927 149.044 44.762C148.348 43.4107 148 41.8854 148 40.1861ZM161.85 40.2476C161.85 39.0806 161.605 38.0671 161.113 37.2073C160.642 36.3474 160.018 35.6922 159.24 35.2418C158.462 34.7914 157.623 34.5662 156.722 34.5662C155.821 34.5662 154.981 34.7914 154.204 35.2418C153.426 35.6717 152.791 36.3167 152.299 37.1765C151.829 38.016 151.593 39.0192 151.593 40.1861C151.593 41.3531 151.829 42.3768 152.299 43.2572C152.791 44.1375 153.426 44.8131 154.204 45.284C155.002 45.7344 155.841 45.9597 156.722 45.9597C157.623 45.9597 158.462 45.7344 159.24 45.284C160.018 44.8336 160.642 44.1785 161.113 43.3186C161.605 42.4382 161.85 41.4146 161.85 40.2476Z" fill="#E03D5F"/>
<path d="M168.813 40.1861C168.813 38.4868 169.162 36.982 169.858 35.6718C170.574 34.3614 171.536 33.348 172.744 32.6314C173.973 31.8944 175.324 31.5259 176.798 31.5259C178.129 31.5259 179.286 31.792 180.268 32.3243C181.272 32.8362 182.07 33.4811 182.664 34.2591V31.8023H186.196V48.7236H182.664V46.2053C182.07 47.0038 181.261 47.6692 180.238 48.2015C179.214 48.7338 178.047 49 176.737 49C175.283 49 173.952 48.6314 172.744 47.8944C171.536 47.1369 170.574 46.0927 169.858 44.762C169.162 43.4107 168.813 41.8854 168.813 40.1861ZM182.664 40.2476C182.664 39.0806 182.418 38.0671 181.927 37.2073C181.456 36.3474 180.832 35.6922 180.054 35.2418C179.276 34.7914 178.436 34.5662 177.535 34.5662C176.634 34.5662 175.795 34.7914 175.017 35.2418C174.239 35.6717 173.604 36.3167 173.113 37.1765C172.642 38.016 172.407 39.0192 172.407 40.1861C172.407 41.3531 172.642 42.3768 173.113 43.2572C173.604 44.1375 174.239 44.8131 175.017 45.284C175.815 45.7344 176.655 45.9597 177.535 45.9597C178.436 45.9597 179.276 45.7344 180.054 45.284C180.832 44.8336 181.456 44.1785 181.927 43.3186C182.418 42.4382 182.664 41.4146 182.664 40.2476Z" fill="#E03D5F"/>
<path d="M194.878 34.6583V44.0249C194.878 44.6596 195.022 45.1202 195.308 45.4069C195.616 45.673 196.127 45.8061 196.844 45.8061H198.994V48.7236H196.23C194.653 48.7236 193.445 48.3551 192.606 47.618C191.766 46.881 191.347 45.6833 191.347 44.0249V34.6583H189.351V31.8023H191.347V27.595H194.878V31.8023H198.994V34.6583H194.878Z" fill="#E03D5F"/>
<path d="M201.053 40.1861C201.053 38.4868 201.401 36.982 202.098 35.6718C202.814 34.3614 203.776 33.348 204.984 32.6314C206.213 31.8944 207.564 31.5259 209.038 31.5259C210.369 31.5259 211.526 31.792 212.508 32.3243C213.512 32.8362 214.31 33.4811 214.904 34.2591V31.8023H218.436V48.7236H214.904V46.2053C214.31 47.0038 213.501 47.6692 212.478 48.2015C211.454 48.7338 210.287 49 208.977 49C207.523 49 206.192 48.6314 204.984 47.8944C203.776 47.1369 202.814 46.0927 202.098 44.762C201.401 43.4107 201.053 41.8854 201.053 40.1861ZM214.904 40.2476C214.904 39.0806 214.658 38.0671 214.167 37.2073C213.696 36.3474 213.071 35.6922 212.293 35.2418C211.515 34.7914 210.676 34.5662 209.775 34.5662C208.874 34.5662 208.035 34.7914 207.257 35.2418C206.479 35.6717 205.844 36.3167 205.353 37.1765C204.882 38.016 204.647 39.0192 204.647 40.1861C204.647 41.3531 204.882 42.3768 205.353 43.2572C205.844 44.1375 206.479 44.8131 207.257 45.284C208.055 45.7344 208.895 45.9597 209.775 45.9597C210.676 45.9597 211.515 45.7344 212.293 45.284C213.071 44.8336 213.696 44.1785 214.167 43.3186C214.658 42.4382 214.904 41.4146 214.904 40.2476Z" fill="#E03D5F"/>
<path d="M339.065 48.8618C338.43 48.8618 337.898 48.6468 337.468 48.2169C337.038 47.7869 336.823 47.2546 336.823 46.62C336.823 45.9853 337.038 45.453 337.468 45.023C337.898 44.5931 338.43 44.3781 339.065 44.3781C339.679 44.3781 340.201 44.5931 340.631 45.023C341.061 45.453 341.276 45.9853 341.276 46.62C341.276 47.2546 341.061 47.7869 340.631 48.2169C340.201 48.6468 339.679 48.8618 339.065 48.8618Z" fill="#E03D5F"/>
<path d="M346.841 29.4837C346.207 29.4837 345.674 29.2687 345.244 28.8388C344.814 28.4088 344.599 27.8765 344.599 27.2418C344.599 26.6072 344.814 26.0749 345.244 25.6449C345.674 25.215 346.207 25 346.841 25C347.456 25 347.978 25.215 348.408 25.6449C348.837 26.0749 349.052 26.6072 349.052 27.2418C349.052 27.8765 348.837 28.4088 348.408 28.8388C347.978 29.2687 347.456 29.4837 346.841 29.4837ZM348.561 31.7255V48.6468H345.06V31.7255H348.561Z" fill="#E03D5F"/>
<path d="M360.497 48.9232C358.9 48.9232 357.457 48.5649 356.167 47.8484C354.877 47.1113 353.864 46.0877 353.127 44.7773C352.39 43.4466 352.021 41.9111 352.021 40.1708C352.021 38.4511 352.4 36.9258 353.158 35.595C353.915 34.2642 354.949 33.2406 356.259 32.524C357.57 31.8074 359.034 31.4491 360.651 31.4491C362.268 31.4491 363.732 31.8074 365.043 32.524C366.353 33.2406 367.387 34.2642 368.144 35.595C368.902 36.9258 369.281 38.4511 369.281 40.1708C369.281 41.8906 368.892 43.4159 368.114 44.7466C367.336 46.0774 366.271 47.1113 364.92 47.8484C363.589 48.5649 362.115 48.9232 360.497 48.9232ZM360.497 45.8829C361.398 45.8829 362.238 45.6679 363.016 45.238C363.814 44.8081 364.459 44.1631 364.95 43.3033C365.442 42.4434 365.687 41.3992 365.687 40.1708C365.687 38.9424 365.452 37.9085 364.981 37.0691C364.51 36.2092 363.886 35.5643 363.108 35.1344C362.33 34.7044 361.49 34.4894 360.589 34.4894C359.689 34.4894 358.849 34.7044 358.071 35.1344C357.314 35.5643 356.71 36.2092 356.259 37.0691C355.809 37.9085 355.584 38.9424 355.584 40.1708C355.584 41.993 356.044 43.4056 356.966 44.4088C357.907 45.3916 359.085 45.8829 360.497 45.8829Z" fill="#E03D5F"/>
<path d="M150.112 83.1439C150.112 79.5599 150.816 76.3812 152.224 73.6079C153.674 70.8345 155.616 68.7012 158.048 67.2079C160.522 65.7145 163.274 64.9679 166.304 64.9679C168.949 64.9679 171.253 65.5012 173.216 66.5679C175.221 67.6345 176.821 68.9785 178.016 70.5999V65.5439H187.04V101H178.016V95.8159C176.864 97.4799 175.264 98.8665 173.216 99.9759C171.21 101.043 168.885 101.576 166.24 101.576C163.253 101.576 160.522 100.808 158.048 99.2719C155.616 97.7359 153.674 95.5812 152.224 92.8079C150.816 89.9919 150.112 86.7705 150.112 83.1439ZM178.016 83.2719C178.016 81.0959 177.589 79.2399 176.736 77.7039C175.882 76.1252 174.73 74.9305 173.28 74.1199C171.829 73.2665 170.272 72.8399 168.608 72.8399C166.944 72.8399 165.408 73.2452 164 74.0559C162.592 74.8665 161.44 76.0612 160.544 77.6399C159.69 79.1759 159.264 81.0105 159.264 83.1439C159.264 85.2772 159.69 87.1545 160.544 88.7759C161.44 90.3545 162.592 91.5705 164 92.4239C165.45 93.2772 166.986 93.7039 168.608 93.7039C170.272 93.7039 171.829 93.2985 173.28 92.4879C174.73 91.6345 175.882 90.4399 176.736 88.9039C177.589 87.3252 178.016 85.4479 178.016 83.2719Z" fill="#214392"/>
<path d="M204.751 70.6639C205.903 69.0425 207.481 67.6985 209.487 66.6319C211.535 65.5225 213.86 64.9679 216.463 64.9679C219.492 64.9679 222.223 65.7145 224.655 67.2079C227.129 68.7012 229.071 70.8345 230.479 73.6079C231.929 76.3385 232.655 79.5172 232.655 83.1439C232.655 86.7705 231.929 89.9919 230.479 92.8079C229.071 95.5812 227.129 97.7359 224.655 99.2719C222.223 100.808 219.492 101.576 216.463 101.576C213.86 101.576 211.556 101.043 209.551 99.9759C207.588 98.9092 205.988 97.5652 204.751 95.9439V117.896H195.791V65.5439H204.751V70.6639ZM223.503 83.1439C223.503 81.0105 223.055 79.1759 222.159 77.6399C221.305 76.0612 220.153 74.8665 218.703 74.0559C217.295 73.2452 215.759 72.8399 214.095 72.8399C212.473 72.8399 210.937 73.2665 209.487 74.1199C208.079 74.9305 206.927 76.1252 206.031 77.7039C205.177 79.2825 204.751 81.1385 204.751 83.2719C204.751 85.4052 205.177 87.2612 206.031 88.8399C206.927 90.4185 208.079 91.6345 209.487 92.4879C210.937 93.2985 212.473 93.7039 214.095 93.7039C215.759 93.7039 217.295 93.2772 218.703 92.4239C220.153 91.5705 221.305 90.3545 222.159 88.7759C223.055 87.1972 223.503 85.3199 223.503 83.1439Z" fill="#214392"/>
<path d="M248.126 70.6639C249.278 69.0425 250.856 67.6985 252.862 66.6319C254.91 65.5225 257.235 64.9679 259.838 64.9679C262.867 64.9679 265.598 65.7145 268.03 67.2079C270.504 68.7012 272.446 70.8345 273.854 73.6079C275.304 76.3385 276.03 79.5172 276.03 83.1439C276.03 86.7705 275.304 89.9919 273.854 92.8079C272.446 95.5812 270.504 97.7359 268.03 99.2719C265.598 100.808 262.867 101.576 259.838 101.576C257.235 101.576 254.931 101.043 252.926 99.9759C250.963 98.9092 249.363 97.5652 248.126 95.9439V117.896H239.166V65.5439H248.126V70.6639ZM266.878 83.1439C266.878 81.0105 266.43 79.1759 265.534 77.6399C264.68 76.0612 263.528 74.8665 262.078 74.0559C260.67 73.2452 259.134 72.8399 257.47 72.8399C255.848 72.8399 254.312 73.2665 252.862 74.1199C251.454 74.9305 250.302 76.1252 249.406 77.7039C248.552 79.2825 248.126 81.1385 248.126 83.2719C248.126 85.4052 248.552 87.2612 249.406 88.8399C250.302 90.4185 251.454 91.6345 252.862 92.4879C254.312 93.2985 255.848 93.7039 257.47 93.7039C259.134 93.7039 260.67 93.2772 262.078 92.4239C263.528 91.5705 264.68 90.3545 265.534 88.7759C266.43 87.1972 266.878 85.3199 266.878 83.1439Z" fill="#214392"/>
<path d="M280.237 83.2719C280.237 79.6025 280.983 76.4025 282.477 73.6719C283.97 70.8985 286.039 68.7652 288.685 67.2719C291.33 65.7359 294.359 64.9679 297.773 64.9679C302.167 64.9679 305.794 66.0772 308.653 68.2959C311.554 70.4719 313.495 73.5439 314.477 77.5119H304.813C304.301 75.9759 303.426 74.7812 302.189 73.9279C300.994 73.0319 299.501 72.5839 297.709 72.5839C295.149 72.5839 293.122 73.5225 291.629 75.3999C290.135 77.2345 289.389 79.8585 289.389 83.2719C289.389 86.6425 290.135 89.2665 291.629 91.1439C293.122 92.9785 295.149 93.8959 297.709 93.8959C301.335 93.8959 303.703 92.2745 304.813 89.0319H314.477C313.495 92.8719 311.554 95.9225 308.653 98.1839C305.751 100.445 302.125 101.576 297.773 101.576C294.359 101.576 291.33 100.829 288.685 99.3359C286.039 97.7999 283.97 95.6665 282.477 92.9359C280.983 90.1625 280.237 86.9412 280.237 83.2719Z" fill="#214392"/>
<path d="M354.001 82.5039C354.001 83.7839 353.915 84.9359 353.745 85.9599H327.825C328.038 88.5199 328.934 90.5252 330.513 91.9759C332.091 93.4265 334.033 94.1519 336.337 94.1519C339.665 94.1519 342.033 92.7225 343.441 89.8639H353.105C352.081 93.2772 350.118 96.0932 347.217 98.3119C344.315 100.488 340.753 101.576 336.529 101.576C333.115 101.576 330.043 100.829 327.313 99.3359C324.625 97.7999 322.513 95.6452 320.977 92.8719C319.483 90.0985 318.737 86.8985 318.737 83.2719C318.737 79.6025 319.483 76.3812 320.977 73.6079C322.47 70.8345 324.561 68.7012 327.249 67.2079C329.937 65.7145 333.03 64.9679 336.529 64.9679C339.899 64.9679 342.907 65.6932 345.553 67.1439C348.241 68.5945 350.31 70.6639 351.761 73.3519C353.254 75.9972 354.001 79.0479 354.001 82.5039ZM344.721 79.9439C344.678 77.6399 343.846 75.8052 342.225 74.4399C340.603 73.0319 338.619 72.3279 336.273 72.3279C334.054 72.3279 332.177 73.0105 330.641 74.3759C329.147 75.6985 328.23 77.5545 327.889 79.9439H344.721Z" fill="#214392"/>
<path d="M380.189 65.0319C384.413 65.0319 387.826 66.3759 390.429 69.0639C393.031 71.7092 394.333 75.4212 394.333 80.1999V101H385.373V81.4159C385.373 78.5999 384.669 76.4452 383.261 74.9519C381.853 73.4159 379.933 72.6479 377.501 72.6479C375.026 72.6479 373.063 73.4159 371.613 74.9519C370.205 76.4452 369.501 78.5999 369.501 81.4159V101H360.541V65.5439H369.501V69.9599C370.695 68.4239 372.21 67.2292 374.045 66.3759C375.922 65.4799 377.97 65.0319 380.189 65.0319Z" fill="#214392"/>
<path d="M413.285 72.9039V90.0559C413.285 91.2505 413.563 92.1252 414.117 92.6799C414.715 93.1919 415.696 93.4479 417.061 93.4479H421.221V101H415.589C408.037 101 404.261 97.3306 404.261 89.9919V72.9039H400.037V65.5439H404.261V56.7759H413.285V65.5439H421.221V72.9039H413.285Z" fill="#214392"/>
<path d="M460.626 82.5039C460.626 83.7839 460.54 84.9359 460.37 85.9599H434.45C434.663 88.5199 435.559 90.5252 437.138 91.9759C438.716 93.4265 440.658 94.1519 442.962 94.1519C446.29 94.1519 448.658 92.7225 450.066 89.8639H459.73C458.706 93.2772 456.743 96.0932 453.842 98.3119C450.94 100.488 447.378 101.576 443.154 101.576C439.74 101.576 436.668 100.829 433.938 99.3359C431.25 97.7999 429.138 95.6452 427.602 92.8719C426.108 90.0985 425.362 86.8985 425.362 83.2719C425.362 79.6025 426.108 76.3812 427.602 73.6079C429.095 70.8345 431.186 68.7012 433.874 67.2079C436.562 65.7145 439.655 64.9679 443.154 64.9679C446.524 64.9679 449.533 65.6932 452.178 67.1439C454.866 68.5945 456.935 70.6639 458.386 73.3519C459.879 75.9972 460.626 79.0479 460.626 82.5039ZM451.346 79.9439C451.303 77.6399 450.471 75.8052 448.85 74.4399C447.228 73.0319 445.245 72.3279 442.898 72.3279C440.679 72.3279 438.802 73.0105 437.266 74.3759C435.772 75.6985 434.855 77.5545 434.514 79.9439H451.346Z" fill="#214392"/>
<path d="M476.126 71.0479C477.278 69.1705 478.771 67.6985 480.606 66.6319C482.483 65.5652 484.616 65.0319 487.006 65.0319V74.4399H484.638C481.822 74.4399 479.688 75.1012 478.238 76.4239C476.83 77.7465 476.126 80.0505 476.126 83.3359V101H467.166V65.5439H476.126V71.0479Z" fill="#214392"/>
</svg>
