<svg version="1.1" viewBox="0 0 352 70" xmlns="http://www.w3.org/2000/svg">
 <defs>
  <style>.cls-1{fill:#f37d7e;}.cls-2{fill:#4dc2be;}.cls-3{fill:#5c72b7;}.cls-4{fill:#ffcb1a;}.cls-5{fill:#28b34b;}.cls-6{fill:#4d5359;}</style>
  <style>.cls-1{fill:#f37d7e;}.cls-2{fill:#4dc2be;}.cls-3{fill:#5c72b7;}.cls-4{fill:#ffcb1a;}.cls-5{fill:#28b34b;}</style>
  <style>.cls-1 {
        fill: rgba(32,42,54,0);
      }

      .cls-2 {
        fill: #3498db;
      }

      .cls-3 {
        fill: #f60;
      }

      .cls-4 {
        fill: #fff;
      }</style>
  <style>.cls-1{fill:#f37d7e;}.cls-2{fill:#4dc2be;}.cls-3{fill:#5c72b7;}.cls-4{fill:#ffcb1a;}.cls-5{fill:#28b34b;}</style>
 </defs>
 <path class="cls-6" d="m203.94 28.648h-.20061a8.4256 8.4256 0 01-5.0153-3.2192 9.9923 9.9923 0 01-2.0921-6.2762 9.6198 9.6198 0 012.1112-6.2953 8.5976 8.5976 0 015.0534-3.1525l.20061-.057317a10.594 10.594 0 011.9105-.16239 9.8967 9.8967 0 011.9105.1815h.18151a6.3431 6.3431 0 013.6778 2.1494v-2.1112h3.2002v18.934h-3.1525v-2.178a6.4386 6.4386 0 01-3.6109 2.1494h-.21971a10.862 10.862 0 01-3.9548 0zm-4.0695-9.486a7.1169 7.1169 0 001.7673 4.7764 5.5311 5.5311 0 004.3179 1.6622 5.4547 5.4547 0 004.2892-1.6622 6.9067 6.9067 0 001.5094-4.7764 6.8876 6.8876 0 00-1.5094-4.7764 5.4547 5.4547 0 00-4.2892-1.6622 5.5311 5.5311 0 00-4.3179 1.6622 7.0787 7.0787 0 00-1.7673 4.7764zm77.655-9.6292-6.9927 19.297h-3.7926l-6.9258-19.297h3.4104l5.4261 15.083 5.4547-15.083zm19.602 10.948h-14.749c0 .25794 0 .45854.0762.60183a5.7317 5.7317 0 001.5476 3.0474 5.8751 5.8751 0 004.2892 1.4902 7.948 7.948 0 003.248-.64004 4.9102 4.9102 0 002.1494-1.8055l2.8658 1.4043a7.8525 7.8525 0 01-3.3244 3.1237 10.642 10.642 0 01-4.9579 1.1272 8.8268 8.8268 0 01-6.687-2.5888 9.7439 9.7439 0 01-2.5506-6.9162v-.1624a9.9923 9.9923 0 012.4456-7.0404 8.5211 8.5211 0 016.5628-2.627 8.8268 8.8268 0 015.9418 2.006 8.9319 8.9319 0 012.8658 5.5693 15.944 15.944 0 01.16239 1.9105zm-3.3722-2.9901a2.2259 2.2259 0 000-.45854v-.13374q-.95528-4.2033-5.5597-4.1937a5.6171 5.6171 0 00-4.0313 1.3852 5.5024 5.5024 0 00-1.5284 2.8085c0 .17195-.0669.37256-.0955.59228zm24.197 2.9901h-14.749q0 .39167.086.60183a5.6552 5.6552 0 001.538 3.0474 5.8941 5.8941 0 004.2988 1.4902 7.9766 7.9766 0 003.248-.64004 4.8337 4.8337 0 002.1304-1.8055l2.8658 1.4043a7.8238 7.8238 0 01-3.334 3.1237 10.575 10.575 0 01-4.9484 1.1272 8.8268 8.8268 0 01-6.687-2.5888 9.7057 9.7057 0 01-2.5506-6.9162v-.1624a9.9446 9.9446 0 012.4456-7.0404 8.5211 8.5211 0 016.5628-2.627 8.8173 8.8173 0 015.9324 2.006 8.9415 8.9415 0 012.8658 5.5693 15.934 15.934 0 01.15283 1.9105zm-3.3626-2.9901a2.178 2.178 0 00-.0477-.45854v-.13374q-.95532-4.2033-5.5503-4.1937a5.5979 5.5979 0 00-4.0313 1.3852 5.4261 5.4261 0 00-1.5284 2.8085c0 .17195-.0762.37256-.1051.59228zm14.673-8.0818a8.2442 8.2442 0 00-5.0917 1.7673v-1.4902h-3.1525v19.105h3.1525v-11.139a5.0917 5.0917 0 0110.183 0v11.177h3.1525v-11.177a8.2536 8.2536 0 00-8.2728-8.2442zm-101.41 19.421a10.193 10.193 0 01-1.9678-.1815h-.21972a6.4386 6.4386 0 01-3.6109-2.1494v7.9098h-3.2098v-24.703h3.2098v2.159a6.3145 6.3145 0 013.6684-2.1494h.1815a10.059 10.059 0 011.9105-.1815 10.594 10.594 0 011.9105.16239l.20061.057317a8.5976 8.5976 0 015.0534 3.1525 9.6198 9.6198 0 012.1494 6.2572 9.9923 9.9923 0 01-2.0729 6.2666 8.4256 8.4256 0 01-5.0152 3.1715h-.20061a10.25 10.25 0 01-1.987.22928zm4.3084-14.463a5.512 5.512 0 00-4.3084-1.6622 5.4355 5.4355 0 00-4.2892 1.6622 6.8876 6.8876 0 00-1.5094 4.7764 6.9067 6.9067 0 001.5094 4.7764 5.4355 5.4355 0 004.2892 1.6622 5.512 5.512 0 004.3084-1.6622 7.3556 7.3556 0 000-9.5529zm16.985 14.463a10.193 10.193 0 01-1.968-.1815h-.2197a6.4386 6.4386 0 01-3.611-2.1494v7.9098h-3.2098v-24.703h3.2098v2.159a6.3145 6.3145 0 013.6684-2.1494h.1815a10.059 10.059 0 011.9105-.1815 10.594 10.594 0 011.9105.16239l.20062.057317a8.5976 8.5976 0 015.0534 3.1525 9.6198 9.6198 0 012.1112 6.2953 9.9923 9.9923 0 01-2.0347 6.2285 8.4256 8.4256 0 01-5.0152 3.1715h-.20061a10.25 10.25 0 01-1.987.22928zm4.3084-14.463a5.512 5.512 0 00-4.3084-1.6622 5.4355 5.4355 0 00-4.2892 1.6622 6.8876 6.8876 0 00-1.5094 4.7764 6.9067 6.9067 0 001.5094 4.7764 5.4355 5.4355 0 004.2892 1.6622 5.512 5.512 0 004.3084-1.6622 7.3556 7.3556 0 000-9.5529z" fill="#808080" stroke-width="1.454"/>
 <g transform="matrix(.40512 0 0 .40512 122.1 -2.6296)" data-name="Layer 2">
  <rect class="cls-1" transform="rotate(-20,82.661,114.72)" x="74.16" y="58.02" width="17.01" height="113.39" rx="8.5"/>
  <rect class="cls-2" transform="rotate(25,56.029,91.242)" x="47.51" y="58.68" width="17.01" height="65.12" rx="8.5"/>
  <path class="cls-3" d="m73.85 65.75-.19-.35c-.07-.12-.13-.25-.21-.38l-.24-.37c-.08-.1-.15-.21-.23-.32s-.18-.22-.27-.33l-.26-.31-.59-.59-.31-.25c-.11-.09-.22-.19-.34-.27l-.37-.25-.32-.21c-.23-.13-.47-.26-.71-.37h-.08c-.24-.11-.48-.21-.73-.3l-.38-.11-.42-.12a3.12 3.12 0 00-.44-.09l-.37-.13h-2.5a4.1 4.1 0 00-.48.1l-.33.07a8.28 8.28 0 00-.81.24c-.26.1-.52.21-.77.33l-.29.16c-.15.08-.3.15-.45.24l-.32.22c-.12.08-.25.16-.36.25a2.42 2.42 0 00-.31.25l-.34.28-.26.26-.32.33-.23.28-.3.37-.22.33c-.08.12-.16.24-.23.36s-.23.41-.33.62a8.47 8.47 0 00-.35 6.62l7 19.3 8.7-18.61a8.49 8.49 0 00.26-6.57c-.09-.21-.15-.43-.3-.68z"/>
  <rect class="cls-3" transform="rotate(25,45.86,113.04)" x="37.35" y="104.53" width="17.01" height="17.01" rx="8.5"/>
  <rect class="cls-3" transform="matrix(.94 -.34 .34 .94 -48.74 43.56)" x="90.64" y="151.5" width="17.01" height="17.01" rx="8.5"/>
  <rect class="cls-4" transform="rotate(160,102.85,70.799)" x="94.35" y="14.1" width="17.01" height="113.39" rx="8.5"/>
  <rect class="cls-2" transform="rotate(205 129.5 94.281)" x="121" y="61.72" width="17.01" height="65.12" rx="8.5"/>
  <path class="cls-5" d="m127.33 113.17-7-19.29-8.68 18.61a8.47 8.47 0 00-.26 6.56 7.56 7.56 0 00.3.71l.19.35c.07.13.13.26.21.38s.16.25.24.37l.22.32c.09.12.19.23.28.34l.26.31a3.83 3.83 0 00.29.28c.1.1.19.21.3.3l.31.25.34.28.37.24.32.22c.23.13.47.26.72.38h.08a7.22 7.22 0 00.72.29c.13.05.26.08.39.12s.27.09.41.12.3.06.45.09l.36.07h2.49l.5-.1.32-.07a8.36 8.36 0 00.81-.25c.26-.1.52-.21.77-.33s.19-.1.29-.15l.44-.24c.12-.07.22-.15.33-.22s.25-.16.36-.25l.31-.25c.11-.09.23-.18.33-.28l.27-.27c.09-.09.22-.21.32-.33l.23-.28.3-.36.22-.34c.08-.12.16-.23.23-.36s.23-.41.33-.62a8.47 8.47 0 00.33-6.6z"/>
  <rect class="cls-5" transform="rotate(205 139.67 72.482)" x="131.16" y="63.98" width="17.01" height="17.01" rx="8.5"/>
  <rect class="cls-5" transform="rotate(160,86.371,25.515)" x="77.87" y="17.01" width="17.01" height="17.01" rx="8.5"/>
 </g>
 <text x="195.87009" y="60.34977" fill="#000000" font-family="sans-serif" font-size="75.833px" stroke-width="1.8958" style="line-height:1.25" xml:space="preserve"><tspan x="195.87009" y="60.34977" fill="#000000" font-family="Lato" font-size="30.333px" font-weight="900" stroke-width="3.5613" style="font-variant-caps:normal;font-variant-east-asian:normal;font-variant-ligatures:normal;font-variant-numeric:normal">data.stack</tspan></text>
 <text x="12.422284" y="25.119532" fill="#000000" font-family="sans-serif" font-size="40px" style="line-height:1.25" xml:space="preserve"><tspan x="12.422284" y="25.119532" fill="#000000" font-family="Lato" font-size="21.333px" style="font-variant-caps:normal;font-variant-east-asian:normal;font-variant-ligatures:normal;font-variant-numeric:normal">Powered by</tspan></text>
</svg>
