<svg width="160" height="160" viewBox="0 0 160 160" fill="none" xmlns="http://www.w3.org/2000/svg">
<g clip-path="url(#clip0_191_523)">
<rect width="160" height="160" rx="40" fill="#214392"/>
<path fill-rule="evenodd" clip-rule="evenodd" d="M134 80C134 109.823 109.823 134 80 134C50.1766 134 26 109.823 26 80C26 50.1766 50.1766 26 80 26C109.823 26 134 50.1766 134 80ZM118.296 108.942C124.387 100.896 128 90.8697 128 80C128 69.37 124.545 59.5471 118.696 51.5932C118.677 52.087 118.637 52.5829 118.579 53.0778C118.158 56.624 116.735 60.677 114.605 64.9365C112.258 69.6311 108.957 74.7658 104.878 80.021C108.77 85.0927 111.93 90.0419 114.199 94.5798C116.329 98.8393 117.753 102.892 118.173 106.438C118.272 107.275 118.318 108.115 118.296 108.942ZM101 75.2171C104.465 70.6368 107.25 66.2303 109.239 62.2532C111.204 58.3231 112.313 54.9677 112.62 52.3717C112.933 49.7329 112.375 48.4085 111.742 47.775C111.108 47.1415 109.784 46.5836 107.145 46.8963C104.549 47.204 101.194 48.3131 97.2635 50.2781C93.2886 52.2656 88.8846 55.0481 84.307 58.5109C87.196 60.962 90.0947 63.63 92.9511 66.4865C95.8361 69.3714 98.5289 72.2994 101 75.2171ZM79.5236 62.3281C82.5694 64.8643 85.6547 67.6754 88.7085 70.7291C91.7913 73.8119 94.6268 76.927 97.1818 80.001C94.7334 82.9171 92.0348 85.8666 89.1142 88.7872C85.9242 91.9772 82.6997 94.9023 79.5219 97.526C76.4718 94.9869 73.3819 92.1721 70.3237 89.1139C67.2946 86.0847 64.5043 83.0245 61.9841 80.0026C64.6095 76.8223 67.5368 73.5951 70.7294 70.4024C73.6527 67.4792 76.6049 64.7784 79.5236 62.3281ZM79.5075 54.6298C84.7586 50.555 89.8891 47.2571 94.5802 44.9115C98.8397 42.7818 102.893 41.3583 106.439 40.938C106.875 40.8863 107.312 40.8491 107.748 40.8283C99.9133 35.2684 90.3384 32 80 32C69.4577 32 59.7092 35.3987 51.7903 41.1601C52.1928 41.1815 52.5962 41.2169 52.9991 41.2647C56.5452 41.6849 60.5983 43.1085 64.8577 45.2382C69.4228 47.5208 74.404 50.7052 79.5075 54.6298ZM40.7632 52.344C35.2429 60.1616 32 69.7021 32 80C32 90.5278 35.3893 100.264 41.1363 108.177C41.1378 107.492 41.1833 106.801 41.265 106.112C41.6853 102.566 43.1088 98.5126 45.2385 94.2532C47.4585 89.8132 50.5316 84.9797 54.309 80.0228C50.3456 74.881 47.1317 69.861 44.8328 65.2631C42.7031 61.0037 41.2795 56.9506 40.8593 53.4045C40.8174 53.0511 40.785 52.6972 40.7632 52.344ZM58.1777 75.1985C54.8329 70.7421 52.1379 66.4569 50.1994 62.5798C48.2343 58.6498 47.1252 55.2944 46.8176 52.6984C46.5048 50.0596 47.0628 48.7352 47.6963 48.1017C48.3298 47.4682 49.6542 46.9102 52.293 47.223C54.889 47.5306 58.2444 48.6397 62.1744 50.6048C66.0314 52.5332 70.2922 55.2103 74.7237 58.5311C71.9697 60.8864 69.2091 63.4375 66.4868 66.1598C63.5003 69.1463 60.7197 72.179 58.1777 75.1985ZM58.2032 84.8274C55.034 89.1008 52.4696 93.2074 50.6051 96.9365C48.6401 100.867 47.531 104.222 47.2233 106.818C46.9106 109.457 47.4685 110.781 48.102 111.415C48.7355 112.048 50.0599 112.606 52.6987 112.293C55.2947 111.986 58.6501 110.877 62.5802 108.912C66.3114 107.046 70.4207 104.48 74.6967 101.308C71.8171 98.8634 68.9281 96.2036 66.0811 93.3565C63.2625 90.538 60.6274 87.6783 58.2032 84.8274ZM79.5057 105.199C74.5447 108.98 69.7069 112.056 65.2635 114.278C61.004 116.408 56.951 117.831 53.4048 118.252C52.658 118.34 51.9089 118.386 51.1684 118.38C59.1961 124.42 69.18 128 80 128C90.6245 128 100.443 124.548 108.394 118.705C107.613 118.718 106.822 118.672 106.033 118.578C102.487 118.158 98.4339 116.735 94.1744 114.605C89.6037 112.319 84.6158 109.13 79.5057 105.199ZM84.3305 101.328C87.346 98.7893 90.3744 96.0123 93.3569 93.0298C96.075 90.3117 98.6226 87.5553 100.975 84.8053C104.264 89.2039 106.918 93.4327 108.833 97.2631C110.798 101.193 111.907 104.549 112.215 107.145C112.527 109.783 111.969 111.108 111.336 111.741C110.702 112.375 109.378 112.933 106.739 112.62C104.143 112.312 100.788 111.203 96.8577 109.238C93.0072 107.313 88.7541 104.642 84.3305 101.328Z" fill="white"/>
<path d="M24.0715 24.0711L28.5544 40.8014L40.8018 28.5539L24.0715 24.0711Z" fill="white"/>
</g>
<defs>
<clipPath id="clip0_191_523">
<rect width="160" height="160" fill="white"/>
</clipPath>
</defs>
</svg>
