<svg width="507" height="336" viewBox="0 0 507 336" fill="none" xmlns="http://www.w3.org/2000/svg">
<path d="M82.6891 63.8355C77.558 71.6323 71.0596 83.2433 68.9582 92.3565C62.308 121.131 63.2701 139.686 74.216 165.051C81.8114 182.662 93.1371 191.817 105.754 206.272C115.797 217.782 130.811 228.895 143.909 236.759C162.889 248.151 180.417 256.58 201.575 263.086C227.999 271.212 256.17 271.161 283.8 270.343C315.195 269.423 347.982 267.204 374.946 251.087C401.699 235.097 419.936 205.664 422.333 174.595C423.624 157.837 420.215 140.125 409.674 127.046C399.724 114.718 384.356 107.638 368.65 105.309C352.944 102.98 336.977 104.955 321.465 108.153C303.742 111.815 284.931 117.004 267.951 110.684C246.009 102.508 235.214 78.4841 219.171 61.4559C210.097 51.943 199.12 44.4499 186.954 39.4657C174.788 34.4815 161.708 32.1181 148.567 32.5298C122.363 33.5087 99.2135 43.4995 82.7398 63.8355H82.6891Z" fill="#E2EDF4"/>
<path d="M256.305 152.587H162.712L169.632 85.9257H264.019L256.305 152.587Z" fill="#263238"/>
<path d="M251.545 152.587H157.944L164.864 85.9257H259.25L251.545 152.587Z" fill="#455A64"/>
<path d="M248.068 149.567H161.218L167.641 87.7149H255.225L248.068 149.567Z" fill="#F5F5F5"/>
<path d="M170.636 139.255C170.51 139.255 171.371 129.931 172.561 118.472C173.751 107.013 174.797 97.7138 174.915 97.7307C175.033 97.7476 174.181 107.013 172.991 118.514C171.801 130.015 170.755 139.263 170.636 139.255Z" fill="#263238"/>
<path d="M186.444 99.7979C183.545 100.09 180.625 100.09 177.726 99.7979C180.625 99.5053 183.545 99.5053 186.444 99.7979Z" fill="#263238"/>
<path d="M223.543 99.7979C223.543 99.916 215.77 100.017 206.175 100.017C196.579 100.017 188.815 99.916 188.815 99.7979C188.815 99.6797 196.588 99.5785 206.175 99.5785C215.762 99.5785 223.543 99.6797 223.543 99.7979Z" fill="#6C7584"/>
<path d="M185.423 121.779C182.521 122.072 179.598 122.072 176.696 121.779C179.598 121.487 182.521 121.487 185.423 121.779Z" fill="#263238"/>
<path d="M222.514 121.779C222.514 121.906 214.741 121.999 205.154 121.999C195.567 121.999 187.786 121.906 187.786 121.779C187.786 121.653 195.558 121.56 205.154 121.56C214.75 121.56 222.514 121.661 222.514 121.779Z" fill="#6C7584"/>
<path d="M210.682 131.913C210.682 132.031 202.91 132.133 193.322 132.133C183.735 132.133 175.954 132.031 175.954 131.913C175.954 131.795 183.727 131.694 193.322 131.694C202.918 131.694 210.682 131.795 210.682 131.913Z" fill="#6C7584"/>
<path d="M190.326 106C188.289 106.227 186.238 106.304 184.19 106.228C182.142 106.304 180.091 106.227 178.055 106C180.092 105.783 182.142 105.71 184.19 105.78C186.238 105.71 188.288 105.783 190.326 106Z" fill="#6C7584"/>
<path d="M189.979 115.105C187.942 115.322 185.892 115.396 183.844 115.325C181.796 115.396 179.746 115.322 177.708 115.105C179.746 114.883 181.796 114.81 183.844 114.886C185.892 114.81 187.942 114.883 189.979 115.105Z" fill="#6C7584"/>
<path d="M200.351 128.108C198.314 128.325 196.264 128.398 194.216 128.327C192.168 128.398 190.118 128.325 188.081 128.108C190.118 127.885 192.168 127.812 194.216 127.888C196.264 127.812 198.314 127.886 200.351 128.108Z" fill="#6C7584"/>
<path d="M234.91 106C234.91 106.127 227.897 106.228 219.247 106.228C210.596 106.228 203.575 106.127 203.575 106C203.575 105.874 210.588 105.781 219.247 105.781C227.905 105.781 234.91 105.882 234.91 106Z" fill="#263238"/>
<path d="M225.239 115.628C225.239 115.755 218.226 115.848 209.576 115.848C200.925 115.848 193.904 115.755 193.904 115.628C193.904 115.502 200.917 115.409 209.576 115.409C218.235 115.409 225.239 115.51 225.239 115.628Z" fill="#263238"/>
<path d="M236.025 128.109C236.025 128.227 229.012 128.328 220.362 128.328C211.711 128.328 204.673 128.218 204.673 128.109C204.673 127.999 211.686 127.889 220.345 127.889C229.004 127.889 236.025 127.982 236.025 128.109Z" fill="#263238"/>
<path d="M207.415 139.256C207.415 139.374 200.394 139.475 191.743 139.475C183.093 139.475 176.071 139.374 176.071 139.256C176.071 139.137 183.093 139.036 191.743 139.036C200.394 139.036 207.415 139.129 207.415 139.256Z" fill="#263238"/>
<path d="M242.068 139.256C242.068 139.374 235.055 139.475 226.404 139.475C217.754 139.475 210.732 139.374 210.732 139.256C210.732 139.137 217.746 139.036 226.404 139.036C235.063 139.036 242.068 139.129 242.068 139.256Z" fill="#263238"/>
<path d="M207.407 142.875C207.407 143.002 200.394 143.094 191.743 143.094C183.093 143.094 176.071 143.002 176.071 142.875C176.071 142.748 183.084 142.656 191.743 142.656C200.402 142.656 207.407 142.757 207.407 142.875Z" fill="#263238"/>
<path d="M208.935 108.616C208.935 108.734 201.921 108.835 193.271 108.835C184.621 108.835 177.599 108.734 177.599 108.616C177.599 108.498 184.612 108.396 193.271 108.396C201.93 108.396 208.935 108.498 208.935 108.616Z" fill="#263238"/>
<path d="M200.58 106.042C197.896 106.335 195.188 106.335 192.503 106.042C195.187 105.739 197.896 105.739 200.58 106.042Z" fill="#455A64"/>
<path d="M184.418 124.767C181.737 125.059 179.031 125.059 176.35 124.767C179.031 124.474 181.737 124.474 184.418 124.767Z" fill="#455A64"/>
<path d="M184.199 128.109C181.518 128.401 178.812 128.401 176.131 128.109C178.812 127.816 181.518 127.816 184.199 128.109Z" fill="#455A64"/>
<path d="M254.137 94.3214C254.137 94.4396 234.608 94.5409 210.513 94.5409C186.419 94.5409 166.89 94.4396 166.89 94.3214C166.89 94.2033 186.419 94.0936 210.513 94.0936C234.608 94.0936 254.137 94.1948 254.137 94.3214Z" fill="#263238"/>
<path d="M173.81 91.3683C173.81 91.574 173.749 91.775 173.635 91.9459C173.52 92.1168 173.358 92.2498 173.168 92.3282C172.978 92.4065 172.768 92.4265 172.567 92.3858C172.365 92.345 172.18 92.2453 172.035 92.0993C171.891 91.9533 171.792 91.7675 171.753 91.5656C171.714 91.3637 171.736 91.1547 171.816 90.9652C171.896 90.7757 172.03 90.6142 172.202 90.5011C172.374 90.3881 172.575 90.3286 172.781 90.3303C172.917 90.3303 173.051 90.3572 173.177 90.4095C173.302 90.4617 173.416 90.5383 173.512 90.6348C173.608 90.7313 173.683 90.8458 173.735 90.9717C173.786 91.0976 173.812 91.2324 173.81 91.3683Z" fill="white"/>
<path d="M178.249 91.3683C178.249 91.574 178.188 91.775 178.073 91.9459C177.959 92.1168 177.796 92.2498 177.606 92.3282C177.416 92.4065 177.207 92.4265 177.005 92.3858C176.804 92.345 176.619 92.2453 176.474 92.0993C176.329 91.9533 176.231 91.7675 176.192 91.5656C176.153 91.3637 176.174 91.1547 176.254 90.9652C176.334 90.7757 176.469 90.6142 176.64 90.5011C176.812 90.3881 177.014 90.3286 177.219 90.3303C177.355 90.3303 177.49 90.3572 177.615 90.4095C177.741 90.4617 177.855 90.5383 177.95 90.6348C178.046 90.7313 178.122 90.8458 178.173 90.9717C178.224 91.0976 178.25 91.2324 178.249 91.3683Z" fill="white"/>
<path d="M182.73 91.3683C182.73 91.574 182.669 91.775 182.555 91.9459C182.44 92.1168 182.278 92.2498 182.088 92.3282C181.897 92.4065 181.688 92.4265 181.487 92.3858C181.285 92.345 181.1 92.2453 180.955 92.0993C180.811 91.9533 180.712 91.7675 180.673 91.5656C180.634 91.3637 180.656 91.1547 180.736 90.9652C180.816 90.7757 180.95 90.6142 181.122 90.5011C181.294 90.3881 181.495 90.3286 181.701 90.3303C181.837 90.3303 181.971 90.3572 182.097 90.4095C182.222 90.4617 182.336 90.5383 182.432 90.6348C182.528 90.7313 182.603 90.8458 182.654 90.9717C182.706 91.0976 182.731 91.2324 182.73 91.3683Z" fill="white"/>
<path d="M379.259 154.613H280.805L288.079 84.483H387.378L379.259 154.613Z" fill="#263238"/>
<path d="M374.245 154.613H275.791L283.074 84.483H382.364L374.245 154.613Z" fill="#455A64"/>
<path d="M370.6 151.431H279.243L285.995 86.3642H378.128L370.6 151.431Z" fill="#EBEBEB"/>
<path d="M289.193 139.601C289.075 139.601 289.987 129.796 291.227 117.737C292.468 105.679 293.582 95.9078 293.7 95.9247C293.818 95.9416 292.907 105.721 291.666 117.788C290.426 129.855 289.312 139.609 289.193 139.601Z" fill="#263238"/>
<path d="M305.827 98.1024C302.777 98.3949 299.705 98.3949 296.654 98.1024C299.704 97.7986 302.777 97.7986 305.827 98.1024Z" fill="#263238"/>
<path d="M344.852 98.1024C344.852 98.2205 336.674 98.3218 326.58 98.3218C316.487 98.3218 308.317 98.2205 308.317 98.1024C308.317 97.9842 316.495 97.8745 326.58 97.8745C336.665 97.8745 344.852 97.9758 344.852 98.1024Z" fill="#6C7584"/>
<path d="M304.747 121.223C301.696 121.515 298.624 121.515 295.573 121.223C298.624 120.93 301.696 120.93 304.747 121.223Z" fill="#263238"/>
<path d="M343.772 121.223C343.772 121.341 335.585 121.442 325.5 121.442C315.415 121.442 307.237 121.341 307.237 121.223C307.237 121.105 315.415 121.003 325.5 121.003C335.585 121.003 343.772 121.105 343.772 121.223Z" fill="#6C7584"/>
<path d="M331.323 131.88C331.323 132.007 323.145 132.1 313.06 132.1C302.975 132.1 294.789 132.007 294.789 131.88C294.789 131.754 302.967 131.661 313.06 131.661C323.154 131.661 331.323 131.762 331.323 131.88Z" fill="#6C7584"/>
<path d="M309.87 104.591C305.573 104.883 301.262 104.883 296.966 104.591C301.262 104.298 305.573 104.298 309.87 104.591Z" fill="#6C7584"/>
<path d="M309.541 114.194C305.245 114.497 300.933 114.497 296.637 114.194C300.934 113.901 305.245 113.901 309.541 114.194Z" fill="#6C7584"/>
<path d="M320.453 127.88C316.157 128.173 311.846 128.173 307.549 127.88C311.846 127.588 316.157 127.588 320.453 127.88Z" fill="#6C7584"/>
<path d="M356.81 104.591C356.81 104.717 349.433 104.81 340.327 104.81C331.221 104.81 323.845 104.717 323.845 104.591C323.845 104.464 331.221 104.371 340.327 104.371C349.433 104.371 356.81 104.506 356.81 104.591Z" fill="#263238"/>
<path d="M346.641 114.717C346.641 114.843 339.256 114.936 330.158 114.936C321.061 114.936 313.676 114.843 313.676 114.717C313.676 114.59 321.052 114.497 330.158 114.497C339.265 114.497 346.641 114.632 346.641 114.717Z" fill="#263238"/>
<path d="M357.983 127.88C357.983 127.998 350.599 128.1 341.501 128.1C332.404 128.1 325.019 127.998 325.019 127.88C325.019 127.762 332.395 127.661 341.501 127.661C350.607 127.661 357.983 127.754 357.983 127.88Z" fill="#263238"/>
<path d="M327.888 139.601C327.888 139.719 320.512 139.821 311.406 139.821C302.3 139.821 294.924 139.719 294.924 139.601C294.924 139.483 302.308 139.382 311.406 139.382C320.504 139.382 327.888 139.483 327.888 139.601Z" fill="#263238"/>
<path d="M364.338 139.601C364.338 139.719 356.954 139.821 347.856 139.821C338.759 139.821 331.374 139.719 331.374 139.601C331.374 139.483 338.75 139.382 347.856 139.382C356.962 139.382 364.338 139.483 364.338 139.601Z" fill="#263238"/>
<path d="M327.888 143.407C327.888 143.525 320.512 143.626 311.406 143.626C302.3 143.626 294.924 143.525 294.924 143.407C294.924 143.289 302.3 143.187 311.406 143.187C320.512 143.187 327.888 143.297 327.888 143.407Z" fill="#263238"/>
<path d="M329.483 107.376C329.483 107.494 322.107 107.595 313.001 107.595C303.895 107.595 296.519 107.494 296.519 107.376C296.519 107.257 303.895 107.156 313.001 107.156C322.107 107.156 329.483 107.257 329.483 107.376Z" fill="#263238"/>
<path d="M320.69 104.658C317.868 104.951 315.023 104.951 312.2 104.658C315.023 104.366 317.868 104.366 320.69 104.658Z" fill="#455A64"/>
<path d="M303.667 124.361C300.845 124.654 298 124.654 295.177 124.361C298 124.069 300.845 124.069 303.667 124.361Z" fill="#455A64"/>
<path d="M303.465 127.88C300.642 128.173 297.797 128.173 294.975 127.88C297.797 127.588 300.642 127.588 303.465 127.88Z" fill="#455A64"/>
<path d="M377.031 92.3302C377.031 92.4568 356.489 92.5496 331.146 92.5496C305.802 92.5496 285.261 92.4568 285.261 92.3302C285.261 92.2036 305.802 92.1108 331.146 92.1108C356.489 92.1108 377.031 92.212 377.031 92.3302Z" fill="#263238"/>
<path d="M292.536 89.2338C292.536 89.4492 292.472 89.6596 292.352 89.8387C292.233 90.0177 292.063 90.1572 291.864 90.2396C291.665 90.322 291.446 90.3436 291.235 90.3016C291.024 90.2596 290.83 90.1559 290.677 90.0037C290.525 89.8514 290.421 89.6574 290.379 89.4462C290.337 89.235 290.359 89.0161 290.441 88.8172C290.524 88.6183 290.663 88.4482 290.842 88.3286C291.021 88.209 291.232 88.1451 291.447 88.1451C291.59 88.144 291.732 88.1714 291.865 88.2257C291.998 88.28 292.118 88.3602 292.219 88.4615C292.321 88.5628 292.401 88.6833 292.455 88.8159C292.51 88.9485 292.537 89.0906 292.536 89.2338Z" fill="white"/>
<path d="M297.202 89.2338C297.202 89.4492 297.138 89.6596 297.018 89.8387C296.899 90.0177 296.729 90.1572 296.53 90.2396C296.331 90.322 296.112 90.3436 295.901 90.3016C295.69 90.2596 295.496 90.1559 295.343 90.0037C295.191 89.8514 295.087 89.6574 295.045 89.4462C295.003 89.235 295.025 89.0161 295.107 88.8172C295.19 88.6183 295.329 88.4482 295.508 88.3286C295.687 88.209 295.898 88.1451 296.113 88.1451C296.256 88.144 296.398 88.1714 296.531 88.2257C296.664 88.28 296.784 88.3602 296.885 88.4615C296.987 88.5628 297.067 88.6833 297.121 88.8159C297.176 88.9485 297.203 89.0906 297.202 89.2338Z" fill="white"/>
<path d="M301.878 89.2338C301.878 89.4492 301.814 89.6596 301.695 89.8387C301.575 90.0177 301.405 90.1572 301.206 90.2396C301.007 90.322 300.788 90.3436 300.577 90.3016C300.366 90.2596 300.172 90.1559 300.02 90.0037C299.867 89.8514 299.764 89.6574 299.722 89.4462C299.68 89.235 299.701 89.0161 299.784 88.8172C299.866 88.6183 300.005 88.4482 300.185 88.3286C300.364 88.209 300.574 88.1451 300.789 88.1451C300.933 88.144 301.075 88.1714 301.207 88.2257C301.34 88.28 301.46 88.3602 301.562 88.4615C301.663 88.5628 301.743 88.6833 301.797 88.8159C301.852 88.9485 301.879 89.0906 301.878 89.2338Z" fill="white"/>
<path d="M323.086 71.5983H229.063L236.017 4.6329H330.834L323.086 71.5983Z" fill="#263238"/>
<path d="M318.301 71.5983H224.277L231.231 4.6329H326.048L318.301 71.5983Z" fill="#455A64"/>
<path d="M314.807 68.5693H227.569L234.017 6.43054H321.997L314.807 68.5693Z" fill="#FAFAFA"/>
<path d="M237.156 58.1813C237.038 58.1813 237.907 48.8149 239.097 37.3052C240.287 25.7956 241.342 16.4545 241.469 16.4714C241.595 16.4882 240.718 25.8293 239.528 37.3474C238.338 48.8655 237.283 58.1813 237.156 58.1813Z" fill="#263238"/>
<path d="M253.048 18.5214C250.135 18.814 247.2 18.814 244.288 18.5214C247.2 18.2289 250.135 18.2289 253.048 18.5214Z" fill="#263238"/>
<path d="M290.307 18.5214C290.307 18.6396 282.501 18.7409 272.863 18.7409C263.225 18.7409 255.419 18.6396 255.419 18.5214C255.419 18.4033 263.225 18.302 272.863 18.302C282.501 18.302 290.307 18.378 290.307 18.5214Z" fill="#6C7584"/>
<path d="M252.01 40.5876C249.097 40.8802 246.162 40.8802 243.25 40.5876C246.162 40.295 249.097 40.295 252.01 40.5876Z" fill="#263238"/>
<path d="M289.278 40.5876C289.278 40.7057 281.463 40.807 271.833 40.807C262.204 40.807 254.389 40.7057 254.389 40.5876C254.389 40.4694 262.196 40.3682 271.833 40.3682C281.471 40.3682 289.278 40.461 289.278 40.5876Z" fill="#6C7584"/>
<path d="M277.395 50.7634C277.395 50.8816 269.58 50.9829 259.951 50.9829C250.322 50.9829 242.507 50.8816 242.507 50.7634C242.507 50.6453 250.313 50.544 259.951 50.544C269.589 50.544 277.395 50.6453 277.395 50.7634Z" fill="#6C7584"/>
<path d="M256.904 24.7413C252.802 25.0338 248.684 25.0338 244.583 24.7413C248.684 24.4487 252.802 24.4487 256.904 24.7413Z" fill="#6C7584"/>
<path d="M256.592 33.8786C252.49 34.1712 248.372 34.1712 244.271 33.8786C248.372 33.5861 252.49 33.5861 256.592 33.8786Z" fill="#6C7584"/>
<path d="M267.007 46.9416C262.905 47.2342 258.787 47.2342 254.685 46.9416C258.787 46.6491 262.905 46.6491 267.007 46.9416Z" fill="#6C7584"/>
<path d="M301.726 24.7413C301.726 24.8594 294.679 24.9607 285.986 24.9607C277.293 24.9607 270.247 24.8594 270.247 24.7413C270.247 24.6231 277.285 24.5219 285.986 24.5219C294.687 24.5219 301.726 24.6147 301.726 24.7413Z" fill="#263238"/>
<path d="M292.013 34.4104C292.013 34.5286 284.966 34.6298 276.273 34.6298C267.581 34.6298 260.534 34.5286 260.534 34.4104C260.534 34.2923 267.581 34.191 276.273 34.191C284.966 34.191 292.013 34.2838 292.013 34.4104Z" fill="#263238"/>
<path d="M302.848 46.9416C302.848 47.0598 295.801 47.1611 287.109 47.1611C278.416 47.1611 271.369 47.0598 271.369 46.9416C271.369 46.8235 278.416 46.7222 287.109 46.7222C295.801 46.7222 302.848 46.815 302.848 46.9416Z" fill="#263238"/>
<path d="M274.104 58.181C274.104 58.2991 267.057 58.4004 258.365 58.4004C249.672 58.4004 242.65 58.257 242.65 58.181C242.65 58.105 249.697 57.9616 258.39 57.9616C267.082 57.9616 274.104 58.0122 274.104 58.181Z" fill="#263238"/>
<path d="M308.916 58.181C308.916 58.2991 301.869 58.4004 293.177 58.4004C284.484 58.4004 277.437 58.2991 277.437 58.181C277.437 58.0628 284.484 57.9616 293.177 57.9616C301.869 57.9616 308.916 58.0122 308.916 58.181Z" fill="#263238"/>
<path d="M274.104 61.7758C274.104 61.9024 267.057 61.9953 258.364 61.9953C249.672 61.9953 242.625 61.9024 242.625 61.7758C242.625 61.6493 249.672 61.5564 258.364 61.5564C267.057 61.5564 274.104 61.6577 274.104 61.7758Z" fill="#263238"/>
<path d="M275.631 27.3645C275.631 27.4827 268.584 27.5839 259.892 27.5839C251.199 27.5839 244.152 27.4827 244.152 27.3645C244.152 27.2464 251.199 27.1451 259.892 27.1451C268.584 27.1451 275.631 27.2379 275.631 27.3645Z" fill="#263238"/>
<path d="M267.242 24.7738C264.546 25.0664 261.827 25.0664 259.131 24.7738C261.827 24.4813 264.546 24.4813 267.242 24.7738Z" fill="#455A64"/>
<path d="M250.98 43.5838C248.284 43.8764 245.565 43.8764 242.87 43.5838C245.565 43.2913 248.284 43.2913 250.98 43.5838Z" fill="#455A64"/>
<path d="M250.794 46.9416C248.099 47.2342 245.38 47.2342 242.684 46.9416C245.38 46.6491 248.099 46.6491 250.794 46.9416Z" fill="#455A64"/>
<path d="M321.035 12.9952C321.035 13.1218 301.422 13.223 277.226 13.223C253.031 13.223 233.367 13.1218 233.367 12.9952C233.367 12.8686 252.98 12.7758 277.193 12.7758C301.405 12.7758 321.035 12.877 321.035 12.9952Z" fill="#263238"/>
<path d="M239.317 11.0705C239.891 11.0705 240.355 10.6058 240.355 10.0325C240.355 9.45917 239.891 8.99442 239.317 8.99442C238.744 8.99442 238.279 9.45917 238.279 10.0325C238.279 10.6058 238.744 11.0705 239.317 11.0705Z" fill="white"/>
<path d="M243.773 11.0705C244.346 11.0705 244.811 10.6058 244.811 10.0325C244.811 9.45917 244.346 8.99442 243.773 8.99442C243.2 8.99442 242.735 9.45917 242.735 10.0325C242.735 10.6058 243.2 11.0705 243.773 11.0705Z" fill="white"/>
<path d="M248.228 11.0705C248.802 11.0705 249.267 10.6058 249.267 10.0325C249.267 9.45917 248.802 8.99442 248.228 8.99442C247.655 8.99442 247.19 9.45917 247.19 10.0325C247.19 10.6058 247.655 11.0705 248.228 11.0705Z" fill="white"/>
<path d="M163.81 324.566H156.484V334.557H163.81V324.566Z" fill="#263238"/>
<path d="M203.078 207.984H268.07V204.819H203.078V207.984Z" fill="#263238"/>
<path d="M278.138 207.984L290.333 162.308H239.578L228.54 207.984H278.138Z" fill="#263238"/>
<path d="M231.586 204.533H276.922L287.472 164.417H241.899L231.586 204.533Z" fill="#F5F5F5"/>
<path d="M243.031 172.19L240.22 183.547H270.281L273.488 172.19H243.031Z" fill="#E0E0E0"/>
<path d="M267.125 170.688C267.125 170.814 261.859 170.907 255.352 170.907C248.845 170.907 243.579 170.814 243.579 170.688C243.579 170.561 248.845 170.468 255.352 170.468C261.859 170.468 267.125 170.57 267.125 170.688Z" fill="#455A64"/>
<path d="M253.444 174.358C250.286 174.651 247.108 174.651 243.95 174.358C247.108 174.066 250.286 174.066 253.444 174.358Z" fill="#263238"/>
<path d="M261.057 174.181C259.008 174.474 256.928 174.474 254.879 174.181C256.928 173.889 259.008 173.889 261.057 174.181Z" fill="#263238"/>
<path d="M269.657 176.417C269.657 176.544 263.842 176.645 256.668 176.645C249.495 176.645 243.68 176.544 243.68 176.417C243.68 176.291 249.495 176.198 256.668 176.198C263.842 176.198 269.657 176.316 269.657 176.417Z" fill="#455A64"/>
<path d="M251.562 178.298C248.757 178.593 245.928 178.593 243.123 178.298C245.928 178.004 248.757 178.004 251.562 178.298Z" fill="#6C7584"/>
<path d="M267.327 180.99C267.327 181.108 261.935 181.21 255.284 181.21C248.634 181.21 243.233 181.108 243.233 180.99C243.233 180.872 248.626 180.771 255.284 180.771C261.943 180.771 267.327 180.864 267.327 180.99Z" fill="#455A64"/>
<path d="M249.596 186.804C246.509 187.094 243.401 187.094 240.313 186.804C243.401 186.514 246.509 186.514 249.596 186.804Z" fill="#455A64"/>
<path d="M257.563 186.846C256.516 187.051 255.446 187.116 254.382 187.04C253.317 187.106 252.249 187.02 251.208 186.787C252.256 186.583 253.326 186.518 254.39 186.593C255.455 186.528 256.523 186.613 257.563 186.846Z" fill="#263238"/>
<path d="M262.062 186.627C262.062 186.754 261.454 186.847 260.711 186.847C259.969 186.847 259.37 186.754 259.37 186.627C259.37 186.501 259.977 186.408 260.711 186.408C261.446 186.408 262.062 186.509 262.062 186.627Z" fill="#263238"/>
<path d="M243.419 189.134C243.419 189.26 242.752 189.353 241.933 189.353C241.115 189.353 240.457 189.26 240.457 189.134C240.457 189.007 241.123 188.914 241.933 188.914C242.744 188.914 243.419 189.015 243.419 189.134Z" fill="#6C7584"/>
<path d="M252.279 189.134C249.931 189.426 247.555 189.426 245.207 189.134C247.555 188.841 249.931 188.841 252.279 189.134Z" fill="#263238"/>
<path d="M273.412 188.863C273.412 188.99 269.192 189.083 263.968 189.083C258.744 189.083 254.516 188.99 254.516 188.863C254.516 188.737 258.736 188.644 263.968 188.644C269.201 188.644 273.412 188.745 273.412 188.863Z" fill="#455A64"/>
<path d="M242.963 191.555C242.963 191.674 242.288 191.775 241.444 191.775C240.6 191.775 239.925 191.674 239.925 191.555C239.925 191.437 240.6 191.336 241.444 191.336C242.288 191.336 242.963 191.429 242.963 191.555Z" fill="#263238"/>
<path d="M247.621 191.504C247.037 191.722 246.409 191.797 245.789 191.724C245.168 191.797 244.537 191.721 243.95 191.504C244.538 191.292 245.168 191.217 245.789 191.285C246.409 191.217 247.035 191.292 247.621 191.504Z" fill="#263238"/>
<path d="M261.505 191.284C257.541 191.577 253.561 191.577 249.597 191.284C253.561 190.991 257.541 190.991 261.505 191.284Z" fill="#455A64"/>
<path d="M254.162 195.495C251.766 195.712 249.359 195.786 246.955 195.715C244.55 195.786 242.143 195.713 239.748 195.495C242.143 195.273 244.55 195.2 246.955 195.276C249.359 195.2 251.767 195.273 254.162 195.495Z" fill="#455A64"/>
<path d="M262.576 195.31C260.408 195.603 258.211 195.603 256.044 195.31C258.211 195.018 260.408 195.018 262.576 195.31Z" fill="#6C7584"/>
<path d="M275.075 195.31C271.469 195.603 267.845 195.603 264.239 195.31C267.845 195.018 271.469 195.018 275.075 195.31Z" fill="#263238"/>
<path d="M272.188 170.511C272.188 170.638 271.682 170.73 271.066 170.73C270.45 170.73 269.943 170.638 269.943 170.511C269.943 170.384 270.45 170.292 271.066 170.292C271.682 170.292 272.188 170.41 272.188 170.511Z" fill="#263238"/>
<path d="M249.326 168.991C247.696 169.283 246.027 169.283 244.397 168.991C246.027 168.698 247.696 168.698 249.326 168.991Z" fill="#6C7584"/>
<path d="M286.713 167.304H241.14L241.908 164.417H287.481L286.713 167.304Z" fill="#EBEBEB"/>
<path d="M243.824 166.375C244.099 166.375 244.322 166.152 244.322 165.877C244.322 165.602 244.099 165.379 243.824 165.379C243.549 165.379 243.326 165.602 243.326 165.877C243.326 166.152 243.549 166.375 243.824 166.375Z" fill="#FAFAFA"/>
<path d="M245.537 166.375C245.812 166.375 246.035 166.152 246.035 165.877C246.035 165.602 245.812 165.379 245.537 165.379C245.262 165.379 245.039 165.602 245.039 165.877C245.039 166.152 245.262 166.375 245.537 166.375Z" fill="#FAFAFA"/>
<path d="M247.25 166.375C247.525 166.375 247.748 166.152 247.748 165.877C247.748 165.602 247.525 165.379 247.25 165.379C246.975 165.379 246.752 165.602 246.752 165.877C246.752 166.152 246.975 166.375 247.25 166.375Z" fill="#FAFAFA"/>
<path d="M342.252 212.237H234.194V275.279H342.252V212.237Z" fill="#263238"/>
<path d="M283.421 212.237H234.194V275.279H283.421V212.237Z" fill="#455A64"/>
<path d="M278.408 233.645C278.396 233.539 278.396 233.431 278.408 233.325V232.405C278.408 231.561 278.408 230.405 278.366 228.903C278.366 225.857 278.316 221.503 278.282 216.136L278.442 216.296L238.844 216.355L239.064 216.136V220.684C239.064 222.186 239.064 223.68 239.064 225.14C239.064 228.068 239.064 230.911 239.064 233.628L238.861 233.426L267.226 233.519L275.463 233.578H277.674H278.257H278.459H278.282H277.725H275.556L267.361 233.628L238.861 233.73H238.65V233.519C238.65 230.802 238.65 227.958 238.65 225.03V216.153L238.87 215.933L278.468 215.993H278.628V216.153C278.586 221.562 278.56 225.95 278.535 229.013C278.535 230.498 278.535 231.662 278.535 232.481V233.375C278.417 233.552 278.408 233.696 278.408 233.645Z" fill="#263238"/>
<path d="M260.288 224.895C260.178 224.416 259.911 223.988 259.529 223.68C259.324 223.536 259.086 223.445 258.838 223.414C258.589 223.383 258.337 223.413 258.103 223.502C257.821 223.611 257.578 223.802 257.407 224.05C257.235 224.299 257.142 224.593 257.141 224.895C257.145 225.196 257.238 225.49 257.41 225.738C257.581 225.986 257.822 226.177 258.103 226.287C258.338 226.373 258.59 226.401 258.838 226.369C259.087 226.336 259.324 226.245 259.529 226.102C259.908 225.791 260.175 225.364 260.288 224.887C260.288 224.887 260.364 225.038 260.288 225.317C260.221 225.722 260.008 226.088 259.689 226.347C259.448 226.544 259.159 226.676 258.852 226.731C258.545 226.785 258.229 226.761 257.934 226.659C257.564 226.532 257.244 226.293 257.017 225.975C256.79 225.658 256.668 225.277 256.668 224.887C256.668 224.496 256.79 224.115 257.017 223.798C257.244 223.48 257.564 223.241 257.934 223.114C258.228 223.011 258.544 222.985 258.851 223.038C259.158 223.091 259.447 223.222 259.689 223.418C260.008 223.677 260.221 224.043 260.288 224.448C260.373 224.743 260.314 224.895 260.288 224.895Z" fill="#263238"/>
<path d="M278.408 252.925C278.397 252.816 278.397 252.705 278.408 252.596V251.676C278.408 250.832 278.408 249.676 278.366 248.174C278.366 245.137 278.316 240.783 278.282 235.408L278.442 235.568L238.844 235.635L239.064 235.416V239.964C239.064 241.475 239.064 242.96 239.064 244.428C239.064 247.356 239.064 250.2 239.064 252.917L238.861 252.706L267.226 252.807L275.463 252.866H277.674H278.257H278.459H278.282H277.725H275.556L267.361 252.925L238.861 253.026H238.65V252.815C238.65 250.098 238.65 247.255 238.65 244.327V235.424C238.6 235.424 239.064 235.002 238.87 235.197L278.467 235.264H278.628V235.382C278.586 240.8 278.56 245.187 278.535 248.25C278.535 249.736 278.535 250.892 278.535 251.718V252.605C278.417 252.832 278.408 252.934 278.408 252.925Z" fill="#263238"/>
<path d="M260.288 244.167C260.17 243.699 259.903 243.282 259.529 242.978C259.304 242.817 259.039 242.721 258.764 242.701C258.488 242.68 258.212 242.735 257.966 242.861C257.72 242.986 257.513 243.176 257.367 243.411C257.222 243.646 257.143 243.916 257.141 244.193C257.142 244.495 257.235 244.789 257.407 245.037C257.578 245.286 257.821 245.477 258.103 245.585C258.337 245.674 258.589 245.705 258.838 245.674C259.086 245.643 259.324 245.552 259.529 245.408C259.91 245.098 260.177 244.671 260.288 244.193C260.288 244.193 260.364 244.345 260.288 244.623C260.221 245.028 260.008 245.394 259.689 245.653C259.448 245.85 259.159 245.982 258.852 246.037C258.545 246.092 258.229 246.067 257.934 245.965C257.564 245.838 257.244 245.6 257.017 245.282C256.79 244.964 256.668 244.583 256.668 244.193C256.668 243.802 256.79 243.422 257.017 243.104C257.244 242.786 257.564 242.547 257.934 242.421C258.229 242.319 258.545 242.294 258.852 242.349C259.159 242.403 259.448 242.535 259.689 242.733C260.008 242.992 260.221 243.358 260.288 243.762C260.373 244.016 260.314 244.167 260.288 244.167Z" fill="#263238"/>
<path d="M278.408 272.199C278.396 272.092 278.396 271.984 278.408 271.878V270.958C278.408 270.114 278.408 268.958 278.366 267.456C278.366 264.41 278.316 260.056 278.282 254.689L278.442 254.85L238.844 254.909L239.064 254.689V259.238C239.064 260.74 239.064 262.233 239.064 263.693C239.064 266.621 239.064 269.465 239.064 272.182L238.861 271.979L267.226 272.072L275.463 272.131H277.674H278.257H278.459H278.282H277.725H275.556L267.361 272.182L238.861 272.283H238.65V272.072C238.65 269.355 238.65 266.511 238.65 263.583V254.706L238.87 254.487L278.468 254.546H278.628V254.706C278.586 260.115 278.56 264.503 278.535 267.566C278.535 269.051 278.535 270.216 278.535 271.034V271.929C278.417 272.106 278.408 272.207 278.408 272.199Z" fill="#263238"/>
<path d="M260.288 263.449C260.178 262.97 259.911 262.542 259.529 262.233C259.324 262.09 259.086 261.999 258.838 261.968C258.589 261.937 258.337 261.967 258.103 262.056C257.821 262.165 257.578 262.356 257.407 262.604C257.235 262.852 257.142 263.147 257.141 263.449C257.143 263.725 257.222 263.995 257.367 264.23C257.513 264.465 257.72 264.656 257.966 264.781C258.212 264.906 258.488 264.962 258.764 264.941C259.039 264.92 259.304 264.825 259.529 264.664C259.908 264.353 260.175 263.926 260.288 263.449C260.288 263.449 260.364 263.601 260.288 263.879C260.221 264.284 260.008 264.65 259.689 264.909C259.448 265.106 259.159 265.238 258.852 265.293C258.545 265.348 258.229 265.323 257.934 265.221C257.564 265.094 257.244 264.855 257.017 264.538C256.79 264.22 256.668 263.839 256.668 263.449C256.668 263.058 256.79 262.677 257.017 262.36C257.244 262.042 257.564 261.803 257.934 261.676C258.228 261.573 258.544 261.547 258.851 261.6C259.158 261.654 259.447 261.784 259.689 261.98C260.008 262.239 260.221 262.605 260.288 263.01C260.373 263.297 260.314 263.449 260.288 263.449Z" fill="#263238"/>
<path d="M162.232 326.591L90.0156 326.532V212.237H162.232V326.591Z" fill="#263238"/>
<path d="M346.177 207.84H86.5298V213.832H346.177V207.84Z" fill="#263238"/>
<path d="M98.0668 213.832H90.0156V335.089H98.0668V213.832Z" fill="#263238"/>
<path d="M342.252 213.832H334.201V335.122H342.252V213.832Z" fill="#263238"/>
<path d="M291.472 213.832H283.421V335.122H291.472V213.832Z" fill="#263238"/>
<path d="M123.038 207.841C123.038 207.959 115.299 208.06 105.754 208.06C96.2091 208.06 88.4702 207.959 88.4702 207.841C88.4702 207.723 96.2091 207.621 105.754 207.621C115.299 207.621 123.038 207.714 123.038 207.841Z" fill="#455A64"/>
<path d="M198.96 329.182L199.163 320.516L182.917 320.027L182.486 332.684L183.491 332.777C187.964 333.165 206.277 334.414 209.29 333.62C212.666 332.709 198.96 329.182 198.96 329.182Z" fill="#6C7584"/>
<g opacity="0.4">
<path opacity="0.4" d="M205.644 331.148C205.644 331.148 210.446 332.684 209.813 333.469C209.18 334.254 190.639 333.672 182.486 332.71V332.347L204.117 333.191C204.117 333.191 204.674 331.157 205.644 331.148Z" fill="white"/>
</g>
<path d="M182.267 332.329H182.545L183.389 332.405L186.334 332.624C188.824 332.793 192.242 332.97 196.073 333.097C199.905 333.224 203.331 333.249 205.829 333.24H208.783H209.627H209.906H209.627H208.783H205.829C203.34 333.24 199.922 333.156 196.082 333.038C192.242 332.92 188.832 332.759 186.343 332.624L183.389 332.472H182.545L182.267 332.329Z" fill="#263238"/>
<path d="M204.133 333.444C204.277 332.958 204.478 332.491 204.732 332.052C205.038 331.65 205.386 331.282 205.77 330.955C205.278 331.156 204.858 331.501 204.565 331.945C204.273 332.39 204.122 332.912 204.133 333.444Z" fill="#263238"/>
<path d="M199.415 330.869C199.457 330.869 199.702 330.625 199.947 330.262C200.192 329.899 200.36 329.57 200.318 329.544C200.276 329.519 200.031 329.781 199.786 330.152C199.542 330.523 199.373 330.836 199.415 330.869Z" fill="#263238"/>
<path d="M198.125 330.135C198.125 330.135 198.42 330.009 198.707 329.764C198.994 329.519 199.197 329.291 199.163 329.249C199.129 329.207 198.867 329.376 198.581 329.62C198.294 329.865 198.091 330.093 198.125 330.135Z" fill="#263238"/>
<path d="M197.339 328.574C197.608 328.677 197.896 328.723 198.183 328.709C198.466 328.752 198.755 328.729 199.027 328.642C198.758 328.54 198.471 328.494 198.183 328.507C197.719 328.49 197.339 328.515 197.339 328.574Z" fill="#263238"/>
<path d="M197.077 327.486C197.353 327.676 197.679 327.781 198.014 327.79C198.343 327.854 198.684 327.819 198.993 327.688C198.676 327.623 198.354 327.592 198.031 327.596C197.718 327.524 197.398 327.487 197.077 327.486Z" fill="#263238"/>
<path d="M200.015 329.469C200.358 329.527 200.709 329.527 201.053 329.469C201.432 329.431 201.808 329.361 202.175 329.258C202.397 329.2 202.612 329.118 202.817 329.013C202.943 328.948 203.04 328.836 203.087 328.701C203.107 328.624 203.104 328.543 203.078 328.468C203.053 328.393 203.006 328.328 202.943 328.279C202.551 328.071 202.098 328.006 201.663 328.093C201.228 328.181 200.836 328.417 200.555 328.76C200.389 328.964 200.265 329.199 200.192 329.452C200.173 329.544 200.173 329.639 200.192 329.731C200.313 329.423 200.484 329.138 200.698 328.887C200.939 328.62 201.253 328.429 201.601 328.338C202.017 328.216 202.465 328.258 202.85 328.456C203.011 328.583 202.935 328.777 202.749 328.887C202.559 328.98 202.362 329.056 202.158 329.114C201.802 329.225 201.438 329.309 201.07 329.368C200.453 329.444 200.015 329.435 200.015 329.469Z" fill="#263238"/>
<path d="M200.276 329.529C200.411 329.316 200.462 329.06 200.419 328.811C200.397 328.535 200.308 328.268 200.158 328.035C200.076 327.878 199.955 327.745 199.808 327.648C199.66 327.55 199.49 327.492 199.314 327.478C199.207 327.497 199.111 327.557 199.048 327.645C198.985 327.733 198.959 327.843 198.976 327.951C198.998 328.119 199.055 328.28 199.145 328.423C199.272 328.658 199.431 328.874 199.618 329.065C199.775 329.256 199.974 329.41 200.2 329.512C200.2 329.512 199.998 329.318 199.719 328.972C199.559 328.776 199.421 328.564 199.306 328.339C199.17 328.111 199.078 327.714 199.348 327.672C199.618 327.63 199.863 327.925 200.014 328.136C200.158 328.343 200.253 328.58 200.293 328.828C200.312 329.062 200.306 329.296 200.276 329.529Z" fill="#263238"/>
<path d="M182.73 327.891C182.73 327.933 183.203 327.891 183.929 327.975C184.884 328.106 185.782 328.506 186.518 329.129C187.254 329.753 187.796 330.573 188.081 331.494C188.191 331.881 188.281 332.272 188.351 332.668C188.373 332.559 188.373 332.447 188.351 332.338C188.322 332.054 188.272 331.771 188.199 331.494C187.938 330.53 187.389 329.667 186.627 329.02C185.864 328.374 184.924 327.974 183.929 327.874C183.631 327.844 183.332 327.844 183.034 327.874C182.933 327.867 182.831 327.873 182.73 327.891Z" fill="#263238"/>
<path d="M184.622 321.182C184.48 322.288 184.398 323.401 184.377 324.516C184.3 325.639 184.286 326.766 184.335 327.891C184.478 326.785 184.56 325.672 184.58 324.558C184.663 323.435 184.677 322.307 184.622 321.182Z" fill="#263238"/>
<path d="M190.47 331.232C191.241 331.439 192.035 331.544 192.833 331.544C193.628 331.605 194.428 331.565 195.213 331.426C195.213 331.367 194.15 331.426 192.842 331.35C191.534 331.274 190.479 331.181 190.47 331.232Z" fill="#263238"/>
<path d="M187.288 331.131C187.288 331.131 187.364 331.359 187.465 331.604C187.566 331.848 187.617 332.076 187.676 332.068C187.735 332.059 187.769 331.815 187.676 331.536C187.583 331.258 187.321 331.097 187.288 331.131Z" fill="#263238"/>
<path d="M186.106 329.604C186.106 329.604 186.166 329.815 186.326 329.992C186.486 330.17 186.655 330.279 186.697 330.237C186.739 330.195 186.638 330.035 186.469 329.857C186.301 329.68 186.174 329.57 186.106 329.604Z" fill="#263238"/>
<path d="M184.418 328.869C184.418 328.928 184.646 328.928 184.882 329.021C185.118 329.114 185.287 329.24 185.329 329.206C185.372 329.173 185.245 328.945 184.95 328.835C184.654 328.725 184.418 328.818 184.418 328.869Z" fill="#263238"/>
<path d="M183.22 328.506C183.22 328.557 183.296 328.641 183.422 328.7C183.548 328.759 183.683 328.759 183.7 328.7C183.717 328.641 183.633 328.557 183.498 328.506C183.363 328.455 183.245 328.455 183.22 328.506Z" fill="#263238"/>
<g opacity="0.3">
<path opacity="0.3" d="M182.764 327.461L199.001 327.688L199.035 325.73L182.671 326.423L182.764 327.461Z" fill="black"/>
</g>
<path d="M224.582 330.532V321.857L208.328 321.798L208.235 334.455L209.239 334.523C213.72 334.785 232.026 335.552 235.055 334.658C238.38 333.688 224.582 330.532 224.582 330.532Z" fill="#6C7584"/>
<g opacity="0.4">
<path opacity="0.4" d="M231.316 332.312C231.316 332.312 236.152 333.73 235.536 334.523C234.92 335.316 216.378 335.24 208.201 334.523V334.16L229.839 334.439C229.839 334.439 230.371 332.354 231.316 332.312Z" fill="white"/>
</g>
<path d="M207.981 334.109H208.26L209.062 334.16L212.015 334.304C214.505 334.405 217.923 334.498 221.763 334.515C225.603 334.531 229.021 334.515 231.519 334.405L234.473 334.295L235.274 334.245H235.553H234.473L231.519 334.287C228.987 334.287 225.569 334.363 221.763 334.346C217.957 334.329 214.514 334.253 212.015 334.194L209.062 334.109H207.981Z" fill="#263238"/>
<path d="M229.874 334.659C230 334.168 230.187 333.694 230.431 333.249C230.723 332.834 231.063 332.455 231.443 332.118C230.935 332.303 230.514 332.67 230.262 333.148C229.947 333.585 229.809 334.124 229.874 334.659Z" fill="#263238"/>
<path d="M225.088 332.203C225.13 332.203 225.358 331.95 225.603 331.578C225.848 331.207 225.991 330.886 225.949 330.853C225.907 330.819 225.67 331.106 225.434 331.477C225.198 331.848 225.037 332.169 225.088 332.203Z" fill="#263238"/>
<path d="M223.772 331.502C223.772 331.502 224.067 331.367 224.346 331.123C224.624 330.878 224.827 330.633 224.793 330.591C224.759 330.549 224.498 330.726 224.219 330.971C223.941 331.215 223.738 331.46 223.772 331.502Z" fill="#263238"/>
<path d="M222.944 329.967C223.215 330.062 223.502 330.099 223.788 330.076C224.072 330.111 224.361 330.082 224.632 329.992C224.632 329.933 224.261 329.882 223.788 329.882C223.316 329.882 222.944 329.891 222.944 329.967Z" fill="#263238"/>
<path d="M222.667 328.878C222.947 329.062 223.276 329.159 223.612 329.156C223.943 329.222 224.287 329.178 224.591 329.029C224.272 328.981 223.951 328.958 223.629 328.962C223.311 328.905 222.989 328.877 222.667 328.878Z" fill="#263238"/>
<path d="M225.645 330.786C225.988 330.851 226.34 330.851 226.683 330.786C227.062 330.744 227.435 330.662 227.797 330.541C228.02 330.483 228.235 330.398 228.438 330.288C228.563 330.214 228.656 330.097 228.7 329.959C228.715 329.882 228.708 329.802 228.68 329.729C228.651 329.655 228.602 329.592 228.539 329.545C228.142 329.348 227.688 329.294 227.255 329.394C226.823 329.494 226.438 329.742 226.168 330.094C226.01 330.301 225.893 330.535 225.822 330.786C225.799 330.88 225.799 330.978 225.822 331.073C225.934 330.767 226.097 330.481 226.303 330.229C226.54 329.954 226.85 329.752 227.197 329.646C227.607 329.512 228.053 329.545 228.438 329.739C228.607 329.866 228.539 330.06 228.354 330.17C228.169 330.272 227.974 330.354 227.771 330.414C227.418 330.533 227.057 330.626 226.691 330.693C226.041 330.735 225.645 330.735 225.645 330.786Z" fill="#263238"/>
<path d="M225.916 330.844C226.038 330.623 226.08 330.367 226.034 330.118C226.005 329.843 225.91 329.58 225.755 329.35C225.669 329.199 225.547 329.072 225.4 328.979C225.252 328.887 225.085 328.831 224.911 328.819C224.858 328.829 224.808 328.849 224.763 328.879C224.718 328.909 224.68 328.947 224.65 328.992C224.62 329.037 224.6 329.087 224.589 329.14C224.579 329.193 224.58 329.247 224.591 329.3C224.615 329.466 224.675 329.624 224.768 329.764C224.903 329.995 225.068 330.208 225.257 330.397C225.578 330.717 225.84 330.844 225.848 330.819C225.857 330.793 225.646 330.633 225.359 330.304C225.193 330.107 225.046 329.895 224.92 329.671C224.776 329.452 224.683 329.055 224.92 329.013C225.156 328.97 225.443 329.249 225.603 329.452C225.751 329.655 225.852 329.888 225.899 330.135C225.924 330.371 225.93 330.608 225.916 330.844Z" fill="#263238"/>
<path d="M208.328 329.672C208.328 329.672 208.792 329.629 209.527 329.722C210.483 329.833 211.39 330.21 212.143 330.811C212.89 331.419 213.454 332.222 213.772 333.132C214.016 333.824 214.042 334.296 214.075 334.288C214.092 334.179 214.092 334.068 214.075 333.959C214.044 333.673 213.987 333.391 213.907 333.115C213.618 332.158 213.047 331.31 212.269 330.684C211.49 330.057 210.54 329.681 209.543 329.604C209.246 329.577 208.946 329.577 208.649 329.604C208.438 329.629 208.328 329.655 208.328 329.672Z" fill="#263238"/>
<path d="M210.04 322.912C209.923 324.033 209.872 325.16 209.888 326.287C209.831 327.412 209.845 328.539 209.931 329.662C210.043 328.541 210.094 327.414 210.083 326.287C210.14 325.162 210.126 324.035 210.04 322.912Z" fill="#263238"/>
<path d="M216.15 332.81C216.927 332.994 217.724 333.076 218.522 333.055C219.32 333.095 220.12 333.032 220.902 332.869C220.902 332.819 219.83 332.869 218.522 332.869C217.214 332.869 216.159 332.751 216.15 332.81Z" fill="#263238"/>
<path d="M212.961 332.785C212.961 332.827 213.054 333.013 213.155 333.258C213.256 333.502 213.324 333.722 213.383 333.713C213.442 333.705 213.467 333.46 213.341 333.182C213.214 332.903 213.003 332.751 212.961 332.785Z" fill="#263238"/>
<path d="M211.771 331.291C211.729 331.291 211.838 331.494 212.007 331.671C212.176 331.848 212.336 331.95 212.378 331.907C212.421 331.865 212.311 331.705 212.142 331.528C211.973 331.35 211.813 331.249 211.771 331.291Z" fill="#263238"/>
<path d="M210.058 330.6C210.058 330.659 210.286 330.659 210.522 330.743C210.758 330.827 210.936 330.954 210.978 330.92C211.02 330.887 210.885 330.659 210.59 330.557C210.294 330.456 210.041 330.549 210.058 330.6Z" fill="#263238"/>
<path d="M208.834 330.27C208.834 330.321 208.91 330.405 209.045 330.464C209.179 330.523 209.306 330.514 209.323 330.464C209.339 330.413 209.247 330.329 209.112 330.279C208.977 330.228 208.893 330.22 208.834 330.27Z" fill="#263238"/>
<g opacity="0.3">
<path opacity="0.3" d="M208.353 329.233L224.591 329.039L224.574 327.081L208.227 328.203L208.353 329.233Z" fill="black"/>
</g>
<path d="M188.697 182.045L195.204 201.63C196.959 206.92 201.584 207.832 207.162 207.832H243.359V199.706L210.293 194.989L202.411 174.855L188.697 182.045Z" fill="#FFBE9D"/>
<path d="M247.343 198.027L250.213 196.669C250.213 196.669 253.31 190.686 254.019 190.931C254.728 191.175 254.939 192.931 253.698 195.673L257.513 194.584C257.513 194.584 265.783 198.407 265.42 198.922C265.058 199.436 264.374 200.66 262.576 199.766C260.779 198.871 258.407 197.757 258.407 197.757L253.951 199.031L259.699 199.766L265.108 204.677C265.108 204.677 263.328 206.01 261.8 204.601L247.757 207.613L243.36 207.866V199.74L247.343 198.027Z" fill="#FFBE9D"/>
<path d="M261.8 204.576C261.741 204.576 261.479 204.196 260.956 203.647C260.657 203.333 260.313 203.065 259.935 202.854C259.458 202.626 258.943 202.491 258.416 202.457C256.988 202.36 255.575 202.12 254.196 201.74C255.625 201.691 257.056 201.788 258.466 202.027C259.057 202.063 259.633 202.227 260.154 202.508C260.56 202.753 260.917 203.071 261.209 203.445C261.503 203.763 261.707 204.153 261.8 204.576Z" fill="#EB996E"/>
<path d="M259.605 205.133C259.546 205.133 259.504 204.846 259.116 204.761C258.727 204.677 258.069 204.609 257.428 204.542C256.601 204.529 255.777 204.447 254.963 204.297C255.776 204.014 256.649 203.947 257.495 204.103C258.095 204.155 258.687 204.277 259.259 204.466C259.359 204.503 259.449 204.563 259.522 204.64C259.596 204.718 259.65 204.811 259.681 204.913C259.681 205.065 259.63 205.141 259.605 205.133Z" fill="#EB996E"/>
<path d="M158.139 101.486L156.172 141.297L173.22 142.9L174.165 133.281C174.165 133.281 180.174 134.766 181.997 129.205C183.17 125.653 184.208 97.8235 184.208 97.8235L158.139 101.486Z" fill="#FFBE9D"/>
<path d="M185.676 102.432C186.149 106.161 180.942 108.338 180.942 108.338L180.031 117.156C179.216 117.098 178.398 117.098 177.583 117.156C178.022 113.022 172.688 113.832 172.148 116.65C171.608 119.468 174.68 121.173 174.68 121.173C172.553 124.438 171.684 126.168 168.663 129.231C165.388 132.548 163.599 132.818 160.223 132.716L156.501 132.548C156.501 132.548 155.168 129.366 154.198 121.848C153.733 118.236 150.906 113.494 151.716 107.621C153.995 90.922 169.996 92.6856 169.996 92.6856C178.36 92.8628 184.579 93.791 185.676 102.432Z" fill="#263238"/>
<path d="M173.447 93.1154C177.059 93.2082 180.806 93.4951 183.979 95.2249C187.152 96.9547 189.6 100.524 188.95 104.077L187.144 104.406L186.401 103.072C186.401 103.781 186.401 104.49 186.401 105.199L183.228 106.085C182.751 103.376 181.796 100.773 180.409 98.3977" fill="#263238"/>
<path d="M158.814 111.435C158.688 111.243 158.594 111.032 158.535 110.81C158.331 110.22 158.178 109.613 158.08 108.996C157.737 106.948 157.879 104.848 158.497 102.865C159.114 100.882 160.188 99.0714 161.633 97.5794C162.058 97.1247 162.524 96.7095 163.025 96.339C163.2 96.1858 163.4 96.0631 163.616 95.9761C163.658 96.0352 162.882 96.6174 161.86 97.7819C160.534 99.2987 159.537 101.074 158.932 102.997C158.351 104.926 158.173 106.953 158.409 108.954C158.569 110.498 158.89 111.41 158.814 111.435Z" fill="#455A64"/>
<path d="M162.173 110.043C161.846 109.401 161.621 108.712 161.506 108.001C161.132 106.301 161.021 104.553 161.177 102.82C161.324 101.08 161.734 99.3733 162.392 97.7568C162.63 97.0739 162.975 96.4331 163.414 95.8582C162.505 98.0936 161.901 100.441 161.616 102.837C161.479 105.253 161.667 107.676 162.173 110.043Z" fill="#455A64"/>
<path d="M183.937 103.866C183.852 103.866 183.709 102.836 183.017 101.334C182.128 99.354 180.703 97.6614 178.903 96.4478C177.103 95.2341 175 94.5476 172.831 94.4657C171.143 94.3898 170.138 94.6429 170.122 94.567C170.344 94.4547 170.584 94.3806 170.83 94.3476C171.492 94.2165 172.165 94.1543 172.839 94.1619C175.092 94.1587 177.294 94.8318 179.159 96.094C181.025 97.3563 182.469 99.1495 183.304 101.242C183.559 101.864 183.748 102.512 183.869 103.174C183.93 103.399 183.953 103.633 183.937 103.866Z" fill="#455A64"/>
<path d="M159.346 89.8917C160.299 90.0933 161.159 90.6035 161.793 91.3433C162.533 91.9778 163.038 92.8428 163.228 93.7992C163.109 93.8498 162.561 92.7189 161.481 91.6471C160.4 90.5753 159.286 90.0183 159.346 89.8917Z" fill="#263238"/>
<path d="M163.32 89.9093C163.447 89.9515 163.185 90.8461 163.236 91.9517C163.287 93.0572 163.59 93.918 163.472 93.9771C162.998 93.4191 162.756 92.6999 162.797 91.9685C162.696 91.2402 162.884 90.5012 163.32 89.9093Z" fill="#455A64"/>
<path d="M185.634 177.775L188.41 187.201L206.083 179.21C205.45 177.235 202.521 168.443 196.934 154.486C195.405 150.66 192.916 147.292 189.707 144.707C186.498 142.122 182.677 140.407 178.612 139.728C173.041 138.711 167.396 138.146 161.733 138.04C151.826 138.15 137.259 144.343 135.284 154.072C133.782 161.481 135.225 174.569 135.225 190.466L136.517 220.844L187.288 222.531L185.634 177.775Z" fill="#6C7584"/>
<g opacity="0.3">
<path opacity="0.3" d="M135.25 183.446C141.428 184.712 147.766 183.446 154.061 183.067C157.876 182.839 162.113 182.425 165.134 184.754C167.531 186.611 168.51 189.741 169.185 192.695C171.818 203.943 172.291 211.486 172.881 223.021L142.322 224.878L135.25 183.446Z" fill="black"/>
</g>
<path d="M195.449 151.575C195.449 151.702 182.115 151.795 165.675 151.795C149.235 151.795 135.909 151.702 135.909 151.575C135.909 151.449 149.235 151.356 165.675 151.356C182.115 151.356 195.449 151.457 195.449 151.575Z" fill="#FAFAFA"/>
<path d="M199.154 160.106C199.154 160.224 184.655 160.325 166.788 160.325C148.922 160.325 134.423 160.224 134.423 160.106C134.423 159.988 148.905 159.887 166.788 159.887C184.672 159.887 199.154 159.988 199.154 160.106Z" fill="#FAFAFA"/>
<path d="M203.829 170.806C203.829 170.932 188.368 171.025 169.295 171.025C150.222 171.025 134.761 170.932 134.761 170.806C134.761 170.679 150.222 170.586 169.295 170.586C188.368 170.586 203.829 170.688 203.829 170.806Z" fill="#FAFAFA"/>
<path d="M185.263 182.349C185.263 182.467 180.427 182.568 174.477 182.568C168.527 182.568 163.683 182.467 163.683 182.349C163.683 182.231 168.51 182.13 174.477 182.13C180.444 182.13 185.263 182.222 185.263 182.349Z" fill="#FAFAFA"/>
<path d="M186.25 194.88C186.25 194.998 181.187 195.057 174.958 195.006C168.73 194.956 163.667 194.821 163.667 194.694C163.667 194.568 168.73 194.517 174.958 194.568C181.187 194.618 186.25 194.736 186.25 194.88Z" fill="#FAFAFA"/>
<path d="M186.739 205.047C186.447 205.1 186.149 205.115 185.853 205.09L183.431 205.039C181.389 204.997 178.57 204.938 175.456 204.938C172.342 204.938 169.548 204.988 167.481 205.031L165.059 205.081C164.762 205.12 164.461 205.12 164.164 205.081C164.452 204.997 164.75 204.952 165.05 204.946C165.616 204.887 166.443 204.828 167.464 204.769C169.506 204.642 172.333 204.541 175.456 204.541C178.579 204.541 181.406 204.651 183.44 204.777C184.461 204.836 185.288 204.904 185.862 204.963C186.157 204.956 186.451 204.984 186.739 205.047Z" fill="#FAFAFA"/>
<path d="M186.579 213.284C186.579 213.402 181.6 213.503 175.456 213.503C169.312 213.503 164.341 213.402 164.341 213.284C164.341 213.166 169.312 213.064 175.456 213.064C181.6 213.064 186.579 213.157 186.579 213.284Z" fill="#FAFAFA"/>
<path d="M188.09 143.212C188.09 143.339 178.317 143.432 166.265 143.432C154.214 143.432 144.433 143.339 144.433 143.212C144.433 143.086 154.205 142.993 166.265 142.993C178.325 142.993 188.09 143.094 188.09 143.212Z" fill="#FAFAFA"/>
<path d="M186.95 144.799C186.95 144.85 186.444 144.875 185.6 145.204C184.429 145.718 183.417 146.537 182.671 147.575C181.595 149.135 180.988 150.972 180.924 152.866C180.86 155.196 181.041 157.527 181.464 159.819C182.174 164.018 183.121 168.173 184.3 172.265C184.714 173.793 185.06 175.05 185.321 176.003C185.463 176.456 185.573 176.919 185.65 177.387C185.448 176.958 185.284 176.512 185.161 176.054C184.874 175.21 184.469 173.919 183.996 172.35C182.741 168.264 181.754 164.101 181.042 159.887C180.619 157.56 180.45 155.195 180.536 152.832C180.624 150.87 181.287 148.977 182.443 147.39C183.234 146.324 184.315 145.51 185.558 145.044C185.894 144.929 186.242 144.85 186.596 144.807C186.713 144.788 186.832 144.785 186.95 144.799Z" fill="#263238"/>
<path d="M205.517 176.796C204.73 177.346 203.897 177.826 203.027 178.231C201.458 179.075 199.255 180.13 196.791 181.243C194.326 182.357 192.064 183.285 190.41 183.918C189.531 184.298 188.622 184.606 187.693 184.838C188.528 184.372 189.397 183.969 190.292 183.631C191.913 182.923 194.157 181.944 196.613 180.847C199.069 179.75 201.28 178.695 202.884 177.952C203.734 177.508 204.614 177.122 205.517 176.796Z" fill="#263238"/>
<path d="M152.189 221.342L212.851 223.485C217.584 223.655 222.062 225.672 225.325 229.105C228.588 232.537 230.375 237.112 230.304 241.847L227.772 328.473L204.336 327.697L206.083 246.589L152.18 245.171L152.189 221.342Z" fill="#263238"/>
<path d="M127.124 221.342L187.794 223.485C192.528 223.655 197.006 225.672 200.269 229.105C203.531 232.537 205.319 237.112 205.247 241.847L202.715 328.473L178.967 326.591L181.043 246.589L127.14 245.171L127.124 221.342Z" fill="#263238"/>
<path d="M172.527 252.808H166.561V324.288H172.527V252.808Z" fill="#455A64"/>
<path d="M116.49 183.429V236.049C116.49 239.364 117.807 242.542 120.151 244.886C122.495 247.23 125.674 248.546 128.989 248.546H164.037V183.429C164.037 182.697 163.893 181.973 163.613 181.298C163.333 180.622 162.923 180.008 162.406 179.491C161.889 178.974 161.275 178.563 160.599 178.284C159.923 178.004 159.199 177.86 158.467 177.86H122.06C121.328 177.86 120.604 178.004 119.928 178.284C119.252 178.563 118.638 178.974 118.121 179.491C117.604 180.008 117.194 180.622 116.914 181.298C116.634 181.973 116.49 182.697 116.49 183.429Z" fill="#455A64"/>
<path d="M211.196 252.808H125.857C125.857 250.346 126.835 247.985 128.576 246.244C130.317 244.503 132.678 243.526 135.14 243.526H201.955C204.417 243.526 206.778 244.503 208.519 246.244C210.26 247.985 211.238 250.346 211.238 252.808H211.196Z" fill="#455A64"/>
<path d="M164.037 242.319C164.048 242.454 164.048 242.59 164.037 242.724C164.031 243.111 163.982 243.496 163.894 243.872C163.612 245.063 162.99 246.147 162.103 246.991C161.216 247.834 160.102 248.401 158.898 248.623C157.777 248.743 156.649 248.785 155.522 248.749H147.851C142.407 248.749 137.479 248.749 133.917 248.699L129.697 248.64L128.55 248.597C128.414 248.595 128.278 248.581 128.145 248.555C128.276 248.518 128.413 248.501 128.55 248.505L129.697 248.462L133.917 248.386C137.479 248.344 142.407 248.319 147.851 248.311H155.514C156.62 248.355 157.727 248.33 158.83 248.235C159.765 248.075 160.649 247.7 161.413 247.138C162.541 246.306 163.353 245.116 163.717 243.762C164.012 242.876 163.987 242.319 164.037 242.319Z" fill="#263238"/>
<path d="M174.781 252.993C173.044 253.215 171.291 253.289 169.541 253.213C167.793 253.289 166.043 253.215 164.308 252.993C166.043 252.777 167.793 252.703 169.541 252.774C171.291 252.703 173.043 252.776 174.781 252.993Z" fill="#263238"/>
<path d="M200.741 249.002C200.49 248.176 200.315 247.329 200.217 246.471C199.93 244.851 199.551 242.496 199.095 239.594C198.639 236.691 198.327 233.172 196.723 229.687C195.883 227.874 194.82 226.174 193.559 224.624C192.18 222.98 190.577 221.538 188.799 220.338C187.027 219.124 185.08 218.188 183.026 217.561C181.113 216.951 179.125 216.607 177.119 216.54C173.262 216.456 169.734 216.473 166.797 216.414C163.86 216.355 161.472 216.329 159.826 216.279C158.979 216.298 158.131 216.239 157.294 216.102C158.132 215.97 158.979 215.914 159.826 215.933C161.472 215.882 163.852 215.832 166.797 215.798C169.743 215.764 173.228 215.688 177.144 215.739C181.472 215.841 185.679 217.185 189.263 219.612C191.114 220.853 192.774 222.357 194.192 224.076C195.496 225.69 196.588 227.465 197.441 229.358C197.635 229.805 197.795 230.269 197.972 230.717L198.226 231.392C198.285 231.619 198.352 231.847 198.411 232.075C198.538 232.522 198.664 232.97 198.783 233.408C198.901 233.847 198.943 234.294 199.027 234.725C199.323 236.455 199.483 238.041 199.686 239.509C200.057 242.42 200.352 244.791 200.53 246.42C200.678 247.273 200.748 248.137 200.741 249.002Z" fill="#455A64"/>
<path d="M195.643 330.734H194.799C194.86 327.361 194.249 324.01 193.001 320.876C191.752 317.743 189.892 314.889 187.528 312.482C185.165 310.075 182.345 308.163 179.234 306.858C176.123 305.553 172.783 304.881 169.409 304.881C166.035 304.881 162.695 305.553 159.584 306.858C156.473 308.163 153.653 310.075 151.29 312.482C148.926 314.889 147.066 317.743 145.817 320.876C144.569 324.01 143.958 327.361 144.019 330.734H143.175C143.113 327.25 143.745 323.788 145.035 320.551C146.326 317.314 148.248 314.366 150.69 311.88C153.132 309.394 156.046 307.42 159.26 306.072C162.473 304.724 165.924 304.029 169.409 304.029C172.894 304.029 176.345 304.724 179.558 306.072C182.772 307.42 185.686 309.394 188.128 311.88C190.57 314.366 192.492 317.314 193.783 320.551C195.073 323.788 195.705 327.25 195.643 330.734Z" fill="#455A64"/>
<path d="M147.531 332.068C147.531 332.845 147.3 333.606 146.868 334.252C146.436 334.899 145.821 335.403 145.103 335.701C144.384 335.998 143.593 336.076 142.831 335.924C142.068 335.773 141.367 335.398 140.817 334.848C140.267 334.298 139.892 333.598 139.741 332.835C139.589 332.072 139.667 331.281 139.964 330.563C140.262 329.844 140.766 329.23 141.413 328.798C142.06 328.366 142.82 328.136 143.598 328.136C144.115 328.134 144.626 328.235 145.104 328.433C145.582 328.63 146.016 328.919 146.381 329.285C146.747 329.65 147.036 330.084 147.233 330.562C147.431 331.039 147.532 331.551 147.531 332.068Z" fill="#263238"/>
<path d="M199.348 331.527C199.348 332.305 199.117 333.065 198.685 333.712C198.253 334.358 197.639 334.862 196.92 335.16C196.202 335.458 195.411 335.536 194.648 335.384C193.885 335.232 193.184 334.858 192.634 334.308C192.084 333.758 191.71 333.057 191.558 332.294C191.406 331.532 191.484 330.741 191.782 330.022C192.079 329.304 192.584 328.69 193.23 328.258C193.877 327.826 194.637 327.595 195.415 327.595C196.458 327.595 197.459 328.009 198.196 328.747C198.934 329.484 199.348 330.484 199.348 331.527Z" fill="#263238"/>
<path d="M195.39 324.288C195.39 324.415 183.971 324.516 169.894 324.516C155.817 324.516 144.399 324.415 144.399 324.288C144.399 324.162 155.809 324.069 169.894 324.069C183.98 324.069 195.39 324.17 195.39 324.288Z" fill="#455A64"/>
<path d="M108.294 160.089C108.916 160.483 109.453 160.997 109.874 161.601C110.294 162.205 110.589 162.888 110.741 163.608C111.03 165.059 110.984 166.557 110.606 167.988C109.965 170.755 108.074 173.405 106.049 175.447C103.931 173.11 103.804 169.447 103.855 167.583C103.939 164.638 105.889 159.364 108.294 160.089Z" fill="#6C7584"/>
<path d="M108.26 180.41C108.196 179.592 108.348 178.771 108.703 178.03C109.057 177.289 109.599 176.655 110.277 176.19C110.965 175.736 111.736 175.424 112.546 175.27C113.356 175.117 114.188 175.125 114.994 175.296C115.373 175.335 115.738 175.457 116.064 175.653C116.391 175.848 116.671 176.112 116.885 176.427C117.034 176.75 117.093 177.108 117.058 177.463C117.022 177.817 116.892 178.156 116.682 178.444C116.246 179.019 115.663 179.465 114.994 179.735C112.792 180.781 110.471 181.423 108.243 180.427" fill="#6C7584"/>
<path d="M104.699 186.585C104.816 185.966 104.997 185.361 105.239 184.779C105.475 184.133 105.789 183.518 106.176 182.948C106.617 182.237 107.108 181.557 107.644 180.915C108.631 179.731 109.895 178.809 111.324 178.231C111.758 178.072 112.208 177.956 112.666 177.885C112.833 177.857 113.004 177.857 113.172 177.885C113.172 177.944 112.463 178.02 111.408 178.468C110.049 179.088 108.847 180.005 107.889 181.151C107.359 181.781 106.869 182.444 106.42 183.134C106.034 183.683 105.706 184.271 105.441 184.889C105.235 185.471 104.986 186.038 104.699 186.585Z" fill="#263238"/>
<path d="M107.163 164.234C107.194 164.551 107.194 164.87 107.163 165.187C107.163 165.795 107.078 166.681 107.003 167.769C106.842 169.955 106.581 172.967 106.226 176.292C105.872 179.616 105.45 182.604 105.104 184.73C104.926 185.81 104.783 186.679 104.665 187.261C104.621 187.576 104.551 187.887 104.454 188.19C104.451 187.87 104.479 187.55 104.538 187.236C104.631 186.578 104.741 185.709 104.876 184.705C105.163 182.536 105.542 179.54 105.905 176.216C106.268 172.891 106.547 169.946 106.749 167.719C106.859 166.672 106.952 165.803 107.019 165.136C107.045 164.832 107.093 164.531 107.163 164.234Z" fill="#263238"/>
<path d="M104.563 181.075C104.237 179.367 103.511 177.761 102.442 176.389C101.374 175.017 99.9951 173.919 98.419 173.185C97.5751 172.822 96.5708 172.594 95.9294 173.185C95.288 173.776 95.4568 174.873 95.7943 175.674C96.5299 177.366 97.7507 178.803 99.3024 179.802C100.854 180.8 102.667 181.317 104.512 181.286" fill="#6C7584"/>
<path d="M99.0356 175.7C99.1953 175.749 99.3462 175.823 99.4829 175.919C101.189 176.899 102.674 178.221 103.846 179.801C104.307 180.5 104.652 181.27 104.867 182.079C105.034 182.741 105.111 183.422 105.095 184.104C105.083 184.561 105.03 185.016 104.935 185.463C104.913 185.632 104.867 185.796 104.8 185.952C104.732 185.952 104.884 185.235 104.867 184.104C104.851 183.446 104.757 182.792 104.589 182.155C104.363 181.383 104.021 180.649 103.576 179.978C102.724 178.771 101.684 177.709 100.496 176.831C99.9861 176.484 99.4985 176.107 99.0356 175.7Z" fill="#263238"/>
<path d="M104.285 207.841C101.486 207.839 98.8028 206.726 96.8246 204.746C94.8465 202.767 93.7354 200.083 93.7354 197.285V186.737H114.834V197.285C114.834 200.083 113.723 202.767 111.745 204.746C109.766 206.726 107.083 207.839 104.285 207.841Z" fill="#263238"/>
<path d="M114.842 191.927C114.757 192.035 114.661 192.134 114.555 192.222L113.711 193.007L110.496 195.724L110.42 195.784L110.327 195.733L104.242 192.079H104.42L98.6893 195.724L98.6049 195.784L98.5205 195.716L95.0181 192.973L94.056 192.197C93.9369 192.109 93.8292 192.007 93.7354 191.893C93.8729 191.949 94.0009 192.026 94.1151 192.121C94.3852 192.315 94.7228 192.56 95.1278 192.838L98.6977 195.488H98.5289L104.192 191.758L104.285 191.699L104.377 191.749L110.462 195.48H110.293L113.56 192.838L114.479 192.112C114.716 191.994 114.834 191.91 114.842 191.927Z" fill="#E0E0E0"/>
<path d="M114.842 189.817C114.757 189.925 114.661 190.024 114.555 190.112L113.711 190.897L110.53 193.64L110.454 193.699L110.361 193.648L104.242 189.969H104.42L98.723 193.657L98.6386 193.716L98.5542 193.648L95.0518 190.906L94.0897 190.129C93.9706 190.042 93.8629 189.94 93.769 189.825C93.9065 189.881 94.0346 189.958 94.1488 190.053L95.1616 190.77L98.7314 193.42H98.5626L104.225 189.69L104.318 189.631L104.411 189.682L110.496 193.412H110.327L113.593 190.77L114.513 190.045C114.716 189.884 114.834 189.817 114.842 189.817Z" fill="#E0E0E0"/>
<path d="M114.842 194.036C114.842 194.036 114.749 194.154 114.555 194.34L113.711 195.116L110.53 197.859L110.454 197.926L110.361 197.867L104.242 194.23H104.42L98.7229 197.918L98.6385 197.977L98.5541 197.918C97.1448 196.804 95.9548 195.876 95.0518 195.175L94.0897 194.39C93.8703 194.205 93.7606 194.103 93.769 194.087C93.9043 194.147 94.0318 194.223 94.1488 194.314C94.4188 194.517 94.7564 194.753 95.1615 195.04L98.7314 197.682H98.5626L104.225 193.951L104.318 193.892L104.411 193.951L110.496 197.673H110.327L113.593 195.023L114.513 194.306C114.61 194.202 114.721 194.111 114.842 194.036Z" fill="#E0E0E0"/>
<path d="M388.279 232.615C383.907 233.324 381.949 238.691 382.371 243.104C382.793 247.517 384.574 251.837 384.059 256.234C383.443 261.828 379.215 266.554 378.725 272.157C378.143 278.764 382.818 284.628 384.211 291.109C384.894 294.265 384.802 297.606 385.975 300.61C386.976 303.169 388.834 305.301 391.232 306.643C393.629 307.985 396.418 308.454 399.123 307.971C401.828 307.487 404.282 306.08 406.065 303.99C407.849 301.9 408.852 299.256 408.905 296.509C408.997 291.446 405.866 286.662 406.246 281.599C406.525 277.861 408.719 274.317 408.255 270.629C407.689 266.199 403.588 263.035 402.136 258.816C400.685 254.597 402.086 249.939 401.579 245.5C400.685 237.543 396.271 231.999 388.287 232.632" fill="#6C7584"/>
<path d="M365.949 271.153C365.198 278.528 368.481 287.185 372.254 293.573C376.093 299.989 381.878 305.014 388.769 307.918C389.537 308.238 390.5 308.508 391.149 307.985C391.381 307.733 391.554 307.433 391.658 307.106C391.761 306.78 391.792 306.435 391.749 306.095C391.805 298.267 389.321 290.631 384.669 284.334C380.017 278.037 373.449 273.418 365.949 271.169" fill="#6C7584"/>
<g opacity="0.2">
<path opacity="0.2" d="M365.949 271.153C365.198 278.528 368.481 287.185 372.254 293.573C376.093 299.989 381.878 305.014 388.769 307.918C389.537 308.238 390.5 308.508 391.149 307.985C391.381 307.733 391.554 307.433 391.658 307.106C391.761 306.78 391.792 306.435 391.749 306.095C391.805 298.267 389.321 290.631 384.669 284.334C380.017 278.037 373.449 273.418 365.949 271.169" fill="black"/>
</g>
<path d="M398.077 323.318C397.989 323.193 397.918 323.057 397.866 322.913L397.334 321.697C396.895 320.651 396.229 319.166 395.385 317.267C393.187 312.424 390.745 307.695 388.068 303.1C385.373 298.509 382.449 294.057 379.308 289.759C378.101 288.114 377.105 286.789 376.405 285.886C376.084 285.464 375.814 285.11 375.611 284.831C375.512 284.713 375.424 284.586 375.35 284.451C375.35 284.451 375.476 284.553 375.67 284.78L376.514 285.785C377.257 286.628 378.287 287.953 379.527 289.582C385.987 298.092 391.402 307.348 395.655 317.149C396.499 319.031 397.09 320.567 397.486 321.638L397.942 322.879C398 323.021 398.045 323.168 398.077 323.318Z" fill="#263238"/>
<path d="M393.325 253.02C393.372 253.253 393.401 253.49 393.409 253.728C393.409 254.226 393.494 254.901 393.553 255.762C393.671 257.559 393.831 260.108 394.034 263.23C394.431 269.541 394.988 278.258 395.671 287.878C396.355 297.497 397.013 306.214 397.503 312.517C397.739 315.639 397.933 318.179 398.076 319.985C398.135 320.829 398.178 321.512 398.211 322.01C398.232 322.249 398.232 322.489 398.211 322.727C398.211 322.727 398.169 322.483 398.11 322.019C398.051 321.554 397.984 320.846 397.891 319.993C397.722 318.196 397.486 315.656 397.19 312.542C396.625 306.239 395.907 297.539 395.232 287.911C394.557 278.283 394.059 269.567 393.713 263.23C393.57 260.099 393.452 257.559 393.367 255.754C393.367 254.91 393.317 254.218 393.3 253.711C393.287 253.481 393.295 253.249 393.325 253.02Z" fill="#263238"/>
<path d="M386.54 312.804H405.014V326.364C405.012 328.715 404.076 330.968 402.413 332.63C400.75 334.291 398.495 335.224 396.144 335.224C393.875 335.225 391.692 334.356 390.045 332.795C388.398 331.235 387.412 329.102 387.291 326.837L386.54 312.804Z" fill="#263238"/>
<path d="M292.982 134.033L337.036 158.428L335.382 161.533L291.716 136.682L292.982 134.033Z" fill="#6C7584"/>
<path d="M290.812 131.729L292.837 128.632L294.019 129.357L292.205 132.48L290.812 131.729Z" fill="#6C7584"/>
<path d="M332.031 154.571L334.292 155.871L326.916 202.939L323.422 202.981L332.031 154.571Z" fill="#6C7584"/>
<path d="M313.27 207.842C313.27 207.842 318.646 202.407 325.836 202.778C327.891 202.854 329.911 203.335 331.78 204.193C333.648 205.052 335.328 206.272 336.723 207.783L313.27 207.842Z" fill="#6C7584"/>
<path d="M290.854 153.068L273.41 142.993L278.474 134.276C279.135 133.131 280.015 132.127 281.064 131.321C282.113 130.516 283.31 129.925 284.588 129.583C285.865 129.24 287.198 129.153 288.509 129.326C289.82 129.498 291.085 129.927 292.23 130.589C294.542 131.925 296.229 134.124 296.921 136.703C297.612 139.282 297.252 142.03 295.918 144.343L290.854 153.068Z" fill="#6C7584"/>
</svg>
