<svg xmlns="http://www.w3.org/2000/svg" viewBox="0 0 1440 900"><defs><style>.cls-1{fill:#3b97d2;}.cls-2{fill:#fff;}.cls-3{fill:#4dc1bc;}</style></defs><g id="Layer_2_copy" data-name="Layer 2 copy"><path class="cls-1" d="M311.05,362.69a96.11,96.11,0,1,0,0,174.62Z"/><path class="cls-2" d="M436.15,436.07v76.46q0,16.56-7.12,24.55t-20.81,8h-21q-15.27,0-24.13-9.36t-8.85-28.65q0-19.29,8.85-28.66T387.2,469h33.55v-33Zm-32.39,94.17q9.21,0,13.1-4.32t3.89-14.11V483.73H388.64q-9.94,0-14.48,5.47t-4.53,17.86q0,12.39,4.53,17.78t14.48,5.4Z"/><path class="cls-2" d="M500.81,469a35.08,35.08,0,0,1,12.1,1.87,21.89,21.89,0,0,1,8.28,5.26,20.17,20.17,0,0,1,4.68,8,33.54,33.54,0,0,1,1.44,9.94v35.71a32.83,32.83,0,0,1-.65,7.06,9.65,9.65,0,0,1-2.38,4.68,10.42,10.42,0,0,1-4.82,2.66,29.7,29.7,0,0,1-7.85.86H476q-13.53,0-19.51-6.19t-6-17a28.59,28.59,0,0,1,1.37-9.21,16.34,16.34,0,0,1,4.39-6.84,20.05,20.05,0,0,1,7.92-4.32,40.9,40.9,0,0,1,12-1.52h36.14v-5.76a11,11,0,0,0-2.66-7.49q-2.67-3-9-3H455.16V469Zm7.34,61.2q4.19,0,4.18-3.88V512.1H476.47q-6,0-8.49,2.37a8.7,8.7,0,0,0-2.45,6.56,9.16,9.16,0,0,0,2.45,6.69c1.63,1.68,4.36,2.52,8.21,2.52Z"/><path class="cls-2" d="M545.88,469V451h15.41v18h21v14.69h-21v36q0,6.48,2.38,8.93t7.84,2.45H582v14H568.35a35.21,35.21,0,0,1-10.16-1.29,15.24,15.24,0,0,1-7-4.32,18.81,18.81,0,0,1-4-8.07,50.81,50.81,0,0,1-1.3-12.52V483.73H535.51V469Z"/><path class="cls-2" d="M640.06,469a35,35,0,0,1,12.09,1.87,21.81,21.81,0,0,1,8.28,5.26,20.05,20.05,0,0,1,4.68,8,33.22,33.22,0,0,1,1.44,9.94v35.71a32.9,32.9,0,0,1-.64,7.06,9.74,9.74,0,0,1-2.38,4.68,10.42,10.42,0,0,1-4.82,2.66,29.7,29.7,0,0,1-7.85.86H615.29q-13.53,0-19.51-6.19t-6-17a28.59,28.59,0,0,1,1.37-9.21,16.34,16.34,0,0,1,4.39-6.84,20.05,20.05,0,0,1,7.92-4.32A40.82,40.82,0,0,1,615.43,500h36.15v-5.76a10.93,10.93,0,0,0-2.67-7.49q-2.65-3-9-3h-45.5V469Zm7.34,61.2q4.19,0,4.18-3.88V512.1H615.72q-6,0-8.49,2.37a8.7,8.7,0,0,0-2.45,6.56,9.16,9.16,0,0,0,2.45,6.69q2.44,2.52,8.2,2.52Z"/><path class="cls-1" d="M697.08,525.49v19.58H680.67V525.49Z"/><path class="cls-2" d="M774.84,469v14.69H732.79c-3.55,0-6.1.72-7.63,2.16s-2.31,3.6-2.31,6.48a8,8,0,0,0,2.24,6.12c1.48,1.39,4.34,2.09,8.56,2.09h17.86a41.38,41.38,0,0,1,13,1.73,21.1,21.1,0,0,1,8.07,4.6,15.61,15.61,0,0,1,4.1,6.77,29.23,29.23,0,0,1,1.15,8.36,30.2,30.2,0,0,1-1.37,9.28,17.69,17.69,0,0,1-4.39,7.27,20.83,20.83,0,0,1-7.77,4.76A33.44,33.44,0,0,1,753,545.07H708.74V530.24H753c3.55,0,6.1-.65,7.63-1.94s2.31-3.43,2.31-6.41-.84-5.26-2.52-6.55-4.45-2-8.28-2h-18a38.91,38.91,0,0,1-13-1.8,20.11,20.11,0,0,1-8-4.89,16.92,16.92,0,0,1-4.11-7.13,30.17,30.17,0,0,1-1.15-8.35q0-10.23,5.76-16.2t19-6Z"/><path class="cls-2" d="M792.84,469V451h15.41v18h21v14.69h-21v36q0,6.48,2.37,8.93c1.59,1.63,4.2,2.45,7.85,2.45H829v14H815.3a35.19,35.19,0,0,1-10.15-1.29,15.24,15.24,0,0,1-7-4.32,18.7,18.7,0,0,1-4-8.07,50.81,50.81,0,0,1-1.3-12.52V483.73H782.47V469Z"/><path class="cls-2" d="M887,469a35,35,0,0,1,12.1,1.87,21.81,21.81,0,0,1,8.28,5.26,20.05,20.05,0,0,1,4.68,8,33.22,33.22,0,0,1,1.44,9.94v35.71a32.2,32.2,0,0,1-.65,7.06,9.64,9.64,0,0,1-2.37,4.68,10.46,10.46,0,0,1-4.83,2.66,29.65,29.65,0,0,1-7.85.86H862.24q-13.53,0-19.51-6.19t-6-17a28.32,28.32,0,0,1,1.37-9.21,16.25,16.25,0,0,1,4.39-6.84,19.91,19.91,0,0,1,7.92-4.32A40.82,40.82,0,0,1,862.39,500h36.14v-5.76a10.92,10.92,0,0,0-2.66-7.49q-2.67-3-9-3h-45.5V469Zm7.35,61.2q4.17,0,4.17-3.88V512.1H862.68c-4,0-6.87.79-8.5,2.37a8.73,8.73,0,0,0-2.45,6.56,9.2,9.2,0,0,0,2.45,6.69q2.45,2.52,8.21,2.52Z"/><path class="cls-2" d="M997.89,469v14.69H960.17q-9.95,0-14.48,5.47t-4.53,17.86q0,12.39,4.53,17.78t14.48,5.4h37.72v14.83H958.73q-15.27,0-24.13-9.36t-8.85-28.65q0-19.29,8.85-28.66T958.73,469Z"/><path class="cls-2" d="M1025.54,436.07v64.51h7.06c3,0,5.45-.07,7.41-.22a15.31,15.31,0,0,0,5-1.08,9.05,9.05,0,0,0,3.46-2.59,33.18,33.18,0,0,0,3.16-4.75l12.68-22.9h16.56L1067.59,493a44.7,44.7,0,0,1-5.9,8.28,22.76,22.76,0,0,1-7.64,5.25,19,19,0,0,1,8.79,5.11,51.28,51.28,0,0,1,6.76,9.58l13.68,23.9h-17.13l-12.67-22.46a29.66,29.66,0,0,0-3.31-4.82,10.45,10.45,0,0,0-3.82-2.74,20.45,20.45,0,0,0-5.47-1.3,80.33,80.33,0,0,0-8.28-.36h-7.06v31.68h-15.26v-109Z"/><path class="cls-1" d="M1205.55,546.45h-56a48,48,0,0,1-48-48v-48a48,48,0,0,1,48-48h104v96A48,48,0,0,1,1205.55,546.45Z"/><path class="cls-2" d="M1165.6,449h12.8v55.17h-12.8v-5.78q-7.87,7.37-16.94,7.36a24.39,24.39,0,0,1-18.92-8.27q-7.41-8.43-7.42-21.07,0-12.41,7.42-20.67a23.94,23.94,0,0,1,18.58-8.27q9.63,0,17.28,7.93Zm-30.25,27.41q0,7.93,4.25,12.92a13.92,13.92,0,0,0,11,5A14.62,14.62,0,0,0,1162,489.5q4.37-5,4.36-12.8T1162,463.9A14.41,14.41,0,0,0,1150.7,459a14.1,14.1,0,0,0-11,5A18.37,18.37,0,0,0,1135.35,476.41Z"/><path class="cls-2" d="M1232.78,451.38v16.93q-4.37-5.31-7.82-7.3a15.21,15.21,0,0,0-8-2,15.77,15.77,0,0,0-12,5,17.68,17.68,0,0,0-4.75,12.63,18.11,18.11,0,0,0,4.58,12.74,15.47,15.47,0,0,0,11.84,5,16.2,16.2,0,0,0,8.1-2q3.4-1.93,8-7.48v16.82a33.51,33.51,0,0,1-15.52,4q-12.81,0-21.41-8.27a27.59,27.59,0,0,1-8.61-20.67A28,28,0,0,1,1196,456a29.49,29.49,0,0,1,21.41-8.5A32,32,0,0,1,1232.78,451.38Z"/><path class="cls-2" d="M368.83,399.36h-.39a16.07,16.07,0,0,1-9.57-6.05,19.09,19.09,0,0,1-4-12,18.38,18.38,0,0,1,4-12,16.36,16.36,0,0,1,9.72-6H369a22.63,22.63,0,0,1,3.67-.31,18.42,18.42,0,0,1,3.7.36h.36a12.17,12.17,0,0,1,7,4.08v-4.22h6.05v36.1h-6.12V395.2a12.13,12.13,0,0,1-6.9,4.09h-.42a21.17,21.17,0,0,1-7.53,0ZM361,381.26a13.49,13.49,0,0,0,3.37,9.16,10.6,10.6,0,0,0,8.24,3.16,10.43,10.43,0,0,0,8.19-3.16,13.26,13.26,0,0,0,2.87-9.12h0a13.25,13.25,0,0,0-2.87-9.11,10.43,10.43,0,0,0-8.19-3.18,10.59,10.59,0,0,0-8.24,3.18A13.44,13.44,0,0,0,361,381.26Zm148.23-18.38L495.89,399.7H488.6l-13.19-36.82h6.51l10.33,28.8,10.4-28.8Zm37.39,20.9h-28a3.69,3.69,0,0,0,.15,1.17,11.14,11.14,0,0,0,2.94,5.81,11.27,11.27,0,0,0,8.19,2.82,15,15,0,0,0,6.22-1.22,9.44,9.44,0,0,0,4.08-3.45l5.52,2.7a15.23,15.23,0,0,1-6.37,5.95,20.26,20.26,0,0,1-9.45,2.14,16.81,16.81,0,0,1-12.69-4.86,18.42,18.42,0,0,1-4.86-13.2v-.31A18.92,18.92,0,0,1,517,367.92a17.37,17.37,0,0,1,29.38,9.54,31.36,31.36,0,0,1,.31,3.63Zm-6.44-5.68a4.51,4.51,0,0,0,0-.9v-.27a9.71,9.71,0,0,0-10.59-8,10.67,10.67,0,0,0-7.7,2.64,10.56,10.56,0,0,0-2.9,5.35,7.51,7.51,0,0,0-.19,1.17Zm46.17,5.68H558.2a2.37,2.37,0,0,0,.17,1.17,11,11,0,0,0,2.94,5.81,11.24,11.24,0,0,0,8.31,2.82,14.86,14.86,0,0,0,6.2-1.22,9.2,9.2,0,0,0,4.08-3.45l5.52,2.7a15.18,15.18,0,0,1-6.35,5.95,20.36,20.36,0,0,1-9.45,2.14,16.87,16.87,0,0,1-12.71-4.86,18.53,18.53,0,0,1-4.86-13.2v-.31a18.92,18.92,0,0,1,4.67-13.41,16.27,16.27,0,0,1,12.51-5,16.86,16.86,0,0,1,11.33,3.84,17.07,17.07,0,0,1,5.56,10.65,29.27,29.27,0,0,1,.29,3.62ZM580,378.1a3.39,3.39,0,0,0,0-.9v-.27a9.71,9.71,0,0,0-10.6-8,9.84,9.84,0,0,0-10.59,8,11.43,11.43,0,0,0-.2,1.17Zm28-15.43a15.71,15.71,0,0,0-9.72,3.37v-2.86h-6v36.45h6V378.41a9.72,9.72,0,1,1,19.44,0v21.31h6V378.41A15.71,15.71,0,0,0,608,362.67h0Zm-193.43,37a18.79,18.79,0,0,1-3.74-.34h-.41a12.13,12.13,0,0,1-6.9-4.08v15.06h-6.13V363.23h6.13v4.1a12.11,12.11,0,0,1,7-4.08h.34a19.29,19.29,0,0,1,3.71-.37,22.55,22.55,0,0,1,3.67.32h.39a16.32,16.32,0,0,1,9.72,6,18.42,18.42,0,0,1,4,12,19,19,0,0,1-4,12,16,16,0,0,1-9.55,6.05h-.39a19.28,19.28,0,0,1-3.94.46Zm8.24-27.58a10.55,10.55,0,0,0-8.24-3.18,10.38,10.38,0,0,0-8.18,3.18,13.07,13.07,0,0,0-2.87,9.11h0a13.05,13.05,0,0,0,2.87,9.11,10.37,10.37,0,0,0,8.18,3.16,10.53,10.53,0,0,0,8.24-3.16,14.05,14.05,0,0,0,0-18.29Zm32.39,27.58a18.79,18.79,0,0,1-3.74-.34H451a12.2,12.2,0,0,1-6.87-4.08v15.06H438V363.23h6.13v4.1a12.11,12.11,0,0,1,7-4.08h.34a18.53,18.53,0,0,1,3.71-.37,23.72,23.72,0,0,1,3.67.32h.39a16.32,16.32,0,0,1,9.72,6,18.35,18.35,0,0,1,4,12,18.94,18.94,0,0,1-4,12,16.1,16.1,0,0,1-9.58,6.05H459a19.36,19.36,0,0,1-3.94.46Zm8.22-27.58a12.15,12.15,0,0,0-16.41,0,13.11,13.11,0,0,0-2.86,9.11h0a13.09,13.09,0,0,0,2.86,9.11,12.15,12.15,0,0,0,16.41,0,14.08,14.08,0,0,0,0-18.29Z"/><rect class="cls-1" x="326.03" y="348.62" width="9.22" height="202.75" rx="3.94"/><path class="cls-3" d="M199,443.52c-5.07-4.16-12-22.2-17.07-26.37l-.81-.64a96.35,96.35,0,0,0,33.08,110.92l0-2s3.69-15.73-6.92-31.92c-4.43-6.76,7.84-22.67,10.61-34.7S204,447.69,199,443.52Z"/><path class="cls-3" d="M311.05,362.71a95,95,0,0,0-34.1-8.63v.15s-3.69,27.76-18.46,37S232.65,415.3,241,432s26.76,10.17,43.83,7.86,4.15,50.43,14.31,63.39c2.88,3.67,7.24,4.22,11.95,2.73Z"/></g></svg>