<?xml version="1.0" encoding="utf-8"?>
<!-- Generator: Adobe Illustrator 22.0.1, SVG Export Plug-In . SVG Version: 6.00 Build 0)  -->
<svg version="1.1" id="Layer_1" xmlns="http://www.w3.org/2000/svg" xmlns:xlink="http://www.w3.org/1999/xlink" x="0px" y="0px"
	 viewBox="0 0 100 100" style="enable-background:new 0 0 100 100;" xml:space="preserve">
<style type="text/css">
	.st0{fill:#C1C2C4;}
</style>
<path class="st0" d="M73.3,86.3l-53.4-6.2l8.9-63.9l35.9,4l15.2,19.5L73.3,86.3z M61.3,24.1l-28.5-2.9L24.8,76l44.3,5.4l5.4-36.9
	l-17.1-2.3L61.3,24.1z M37.6,66.3c-0.3-0.4-3-2.7-3.6-3.4c7.3-8.1,25.1-8,30,2.7c-0.8,0.3-4.5,1.9-5.2,2.3
	C56.7,62,44.7,60.1,37.6,66.3z M51.3,44.2l-3,2.2l-4.5-5.4l-6.1,3.3l-2.5-4.1l5.6-2.8L37,33l4.5-3l3.6,5.2l6.4-3.2l1.9,3.9L47.7,39
	L51.3,44.2z"/>
</svg>
