<?xml version="1.0" encoding="utf-8"?>
<!-- Generator: Adobe Illustrator 22.0.1, SVG Export Plug-In . SVG Version: 6.00 Build 0)  -->
<svg version="1.1" id="Layer_1" xmlns="http://www.w3.org/2000/svg" xmlns:xlink="http://www.w3.org/1999/xlink" x="0px" y="0px"
	 viewBox="0 0 24 24" style="enable-background:new 0 0 24 24;" xml:space="preserve">
<style type="text/css">
	.st0{fill:#C1C2C4;}
</style>
<title>404-tv</title>
<desc>Created with Sketch.</desc>
<g>
	<g>
		<g>
			<path id="a_1_" class="st0" d="M5.8,1.8C5.8,1.3,6.1,1,6.5,1C7,1,7.3,1.3,7.3,1.8c0,0.2-0.1,0.3-0.1,0.4l3.6,4.5h0H12l2.5-2.4
				c-0.1-0.1-0.2-0.3-0.2-0.5C14.3,3.3,14.6,3,15,3c0.4,0,0.8,0.3,0.8,0.8S15.5,4.5,15,4.5c-0.1,0-0.1,0-0.2,0l-2.3,2.2h0.3
				c2.9,0,5.6,0.3,6.6,0.5c0.9,0.2,1.8,0.7,2,2.1c0.7,4.7,0.3,8.1,0,9.9c-0.2,1.4-1,1.8-1.9,2l0.2,0.9c0,0.2-0.1,0.3-0.2,0.3l-0.2,0
				c-0.2,0-0.3-0.1-0.3-0.2l-0.2-0.9c-1.3,0.2-3.6,0.3-6,0.3h-2.1c-2.1,0-4.2-0.1-5.5-0.3l-0.2,0.8c0,0.2-0.2,0.3-0.3,0.2l-0.2,0
				c-0.2,0-0.3-0.2-0.2-0.3l0.1-0.8c-0.1,0-0.2,0-0.3-0.1c-0.9-0.2-1.6-0.6-1.8-2C2.1,17.4,2,16.3,2,14.3v-0.1c0-2,0.1-3.1,0.3-4.9
				c0.2-1.4,1-1.9,1.9-2.1c1-0.2,3.4-0.5,6.1-0.5C9.7,6,7.5,3.3,6.8,2.5c-0.1,0-0.2,0-0.2,0C6.1,2.5,5.8,2.2,5.8,1.8z M10,20
				c0.2,0,0.3,0,0.5,0V8.4c-0.2,0-0.3,0-0.5,0V20z M11.5,8.5V20c0.3,0,0.7,0,1,0V8.5C12.2,8.5,11.9,8.5,11.5,8.5z M8.5,19.9
				c0.3,0,0.7,0,1,0V8.5c-0.3,0-0.7,0-1,0.1V19.9z M13.5,8.5v11.4c0.3,0,0.5,0,0.8-0.1V8.6C14.1,8.6,13.8,8.6,13.5,8.5z M6,19.7
				c0.3,0,0.6,0.1,1,0.1V8.7c-0.4,0-0.7,0.1-1,0.1V19.7z M15.8,8.8v10.9c0.1,0,0.2,0,0.3,0c0.3,0,0.5-0.1,0.7-0.3V9.1
				C16.6,9,16.3,8.9,16,8.8C16,8.8,15.9,8.8,15.8,8.8z M4.3,18.1c0.1,0.7,0.4,1.1,0.7,1.3V9.1c-0.3,0.2-0.6,0.7-0.7,1.3
				c-0.2,1.4-0.3,2.2-0.3,3.8v0.1C4.1,15.9,4.1,16.7,4.3,18.1z M17.5,10.2v8c0-0.1,0-0.1,0-0.2c0.2-1.4,0.6-4.1,0-7.6
				C17.6,10.4,17.6,10.3,17.5,10.2z M19.5,15.5c0,0.3,0.2,0.5,0.5,0.5c0.3,0,0.5-0.2,0.5-0.5c0-0.3-0.2-0.5-0.5-0.5
				C19.7,15,19.5,15.2,19.5,15.5z M19.5,17c0,0.3,0.2,0.5,0.5,0.5s0.5-0.2,0.5-0.5c0-0.3-0.2-0.5-0.5-0.5S19.5,16.8,19.5,17z"/>
		</g>
	</g>
</g>
</svg>
