<svg xmlns="http://www.w3.org/2000/svg" xmlns:xlink="http://www.w3.org/1999/xlink" width="14" height="14" viewBox="0 0 14 14"><defs><style>.a{fill:url(#a);}</style><linearGradient id="a" x1="0.5" x2="0.5" y2="1" gradientUnits="objectBoundingBox"><stop offset="0" stop-color="#6d67ff"/><stop offset="1" stop-color="#352ee9"/></linearGradient></defs><path class="a" d="M-8877-1272h-10a2,2,0,0,1-2-2v-10a2,2,0,0,1,2-2h10a2,2,0,0,1,2,2v10A2,2,0,0,1-8877-1272Zm-5-10a3,3,0,0,0-3,3,3,3,0,0,0,3,3,3,3,0,0,0,3-3A3,3,0,0,0-8882-1282Z" transform="translate(8889.001 1286.001)"/></svg>