<?xml version="1.0" encoding="utf-8"?>
<!-- Generator: Adobe Illustrator 24.3.0, SVG Export Plug-In . SVG Version: 6.00 Build 0)  -->
<svg version="1.1" id="Layer_1" xmlns="http://www.w3.org/2000/svg" xmlns:xlink="http://www.w3.org/1999/xlink" x="0px" y="0px"
	 viewBox="0 0 1440 900" style="enable-background:new 0 0 1440 900;" xml:space="preserve">
<style type="text/css">
	.st0{fill:#4D5359;}
	.st1{fill:#F16622;}
	.st2{fill:#F27D7E;}
	.st3{fill:#4DC1BD;}
	.st4{fill:#5C72B6;}
	.st5{fill:#FFCA1A;}
	.st6{fill:#28B24B;}
	.st7{fill:#3B97D2;}
</style>
<g id="Layer_2_copy_2">
		<g>
		<path class="st7" d="M858.7,369.6v-39.7h16.7c2.5,0,4.8,0.6,6.9,1.7c2.1,1.2,3.8,2.8,5,4.8c1.2,2.1,1.9,4.4,1.9,7.2
			c0,2.7-0.6,5.1-1.8,7.1c-1.2,2.1-2.9,3.7-5,4.8c-2.1,1.2-4.4,1.7-7.1,1.7h-9.9v12.2h-6.7V369.6z M865.4,351.4h9.1
			c1.4,0,2.8-0.3,4-0.9s2.2-1.5,2.9-2.6c0.7-1.2,1-2.6,1-4.2s-0.3-3-1-4.2s-1.6-2-2.8-2.7c-1.2-0.6-2.5-0.9-3.9-0.9h-9.1v15.5H865.4
			z"/>
		<path class="st7" d="M907.5,370.2c-2.9,0-5.6-0.7-7.9-2c-2.3-1.3-4.1-3.2-5.5-5.4c-1.3-2.3-2-4.8-2-7.7s0.7-5.4,2-7.7
			c1.3-2.3,3.2-4.1,5.5-5.4s4.9-2,7.9-2s5.6,0.7,7.9,2c2.3,1.3,4.1,3.2,5.5,5.4c1.3,2.3,2,4.8,2,7.7s-0.7,5.4-2,7.7
			c-1.3,2.3-3.2,4.1-5.5,5.4C913.1,369.6,910.5,370.2,907.5,370.2z M907.5,364.7c1.8,0,3.4-0.4,4.7-1.3s2.3-2,3.1-3.5
			c0.7-1.5,1.1-3.1,1.1-4.8c0-1.8-0.4-3.4-1.1-4.8c-0.7-1.5-1.7-2.6-3.1-3.5c-1.3-0.9-2.9-1.3-4.7-1.3s-3.3,0.4-4.6,1.3
			s-2.3,2-3.1,3.4c-0.7,1.4-1.1,3.1-1.1,4.9s0.4,3.4,1.1,4.8c0.7,1.5,1.8,2.6,3.1,3.5C904.1,364.3,905.7,364.7,907.5,364.7z"/>
		<path class="st7" d="M939.3,370.2c-1.9,0-3.6-0.4-5.2-1.1c-1.5-0.7-2.8-1.9-3.7-3.4s-1.4-3.5-1.4-5.9v-19.2h6.5v20.2
			c0,0.8,0.2,1.4,0.5,2s0.8,1,1.3,1.3s1.2,0.5,1.8,0.5s1.2-0.2,1.8-0.5s1-0.7,1.4-1.3c0.3-0.6,0.5-1.3,0.5-2v-10.7
			c0-2.2,0.4-4.1,1.3-5.6c0.9-1.5,2-2.7,3.6-3.5c1.5-0.8,3.3-1.2,5.2-1.2c2,0,3.8,0.4,5.3,1.2c1.5,0.8,2.7,1.9,3.6,3.5
			c0.9,1.5,1.3,3.4,1.3,5.6v10.7c0,0.8,0.2,1.4,0.5,2s0.8,1,1.4,1.3c0.6,0.3,1.2,0.5,1.9,0.5c0.6,0,1.2-0.2,1.8-0.5
			c0.5-0.3,1-0.7,1.3-1.3c0.3-0.6,0.5-1.3,0.5-2v-20.2h6.5v19.2c0,2.4-0.5,4.3-1.4,5.9c-0.9,1.5-2.1,2.7-3.7,3.4
			c-1.5,0.7-3.3,1.1-5.1,1.1c-1.9,0-3.6-0.4-5.1-1.1s-2.8-1.9-3.7-3.4s-1.4-3.5-1.4-5.9v-10.5c0-0.8-0.2-1.5-0.5-2.1
			c-0.3-0.5-0.8-1-1.3-1.3s-1.2-0.5-1.8-0.5s-1.2,0.2-1.8,0.5s-1,0.7-1.4,1.3c-0.3,0.5-0.5,1.2-0.5,2.1v10.5c0,2.4-0.5,4.3-1.4,5.9
			c-0.9,1.5-2.2,2.7-3.7,3.4C942.8,369.9,941.1,370.2,939.3,370.2z"/>
		<path class="st7" d="M999.5,369.6c-3.2,0-6.1-0.6-8.5-1.8c-2.4-1.2-4.3-2.9-5.7-5.1s-2-4.7-2-7.5c0-3,0.6-5.6,1.8-7.9s2.9-4,5-5.3
			s4.6-1.9,7.3-1.9c3.1,0,5.6,0.7,7.7,2c2,1.3,3.5,3.1,4.4,5.3c1,2.2,1.4,4.7,1.4,7.5c0,0.4,0,0.8-0.1,1.3c0,0.5-0.1,0.9-0.2,1.1
			h-20.5c0.2,1.5,0.8,2.8,1.6,3.8c0.9,1,2,1.8,3.3,2.3s2.8,0.8,4.4,0.8h7.8v5.6h-7.7V369.6z M990.1,352.8h14.3
			c0-0.7-0.1-1.4-0.3-2.2c-0.2-0.7-0.4-1.4-0.8-2c-0.4-0.6-0.8-1.2-1.4-1.7c-0.5-0.5-1.2-0.9-2-1.1c-0.8-0.3-1.6-0.4-2.6-0.4
			c-1.1,0-2.1,0.2-3,0.7c-0.9,0.4-1.6,1-2.2,1.7c-0.6,0.7-1.1,1.5-1.4,2.4C990.4,351,990.2,351.9,990.1,352.8z"/>
		<path class="st7" d="M1016.7,369.6v-20.7c0-2.6,0.7-4.6,2.2-6c1.5-1.5,3.5-2.2,6-2.2h7v5.6h-5.8c-0.9,0-1.6,0.3-2.1,0.8
			s-0.8,1.2-0.8,2.2v20.4L1016.7,369.6L1016.7,369.6z"/>
		<path class="st7" d="M1051.1,369.6c-3.2,0-6.1-0.6-8.5-1.8c-2.4-1.2-4.3-2.9-5.7-5.1c-1.4-2.2-2-4.7-2-7.5c0-3,0.6-5.6,1.8-7.9
			c1.2-2.3,2.9-4,5-5.3s4.6-1.9,7.3-1.9c3.1,0,5.6,0.7,7.7,2c2,1.3,3.5,3.1,4.4,5.3c1,2.2,1.4,4.7,1.4,7.5c0,0.4,0,0.8-0.1,1.3
			c0,0.5-0.1,0.9-0.2,1.1h-20.5c0.2,1.5,0.8,2.8,1.6,3.8s2,1.8,3.3,2.3s2.8,0.8,4.4,0.8h7.8v5.6h-7.7V369.6z M1041.7,352.8h14.3
			c0-0.7-0.1-1.4-0.3-2.2c-0.2-0.7-0.4-1.4-0.8-2s-0.8-1.2-1.4-1.7c-0.5-0.5-1.2-0.9-2-1.1c-0.8-0.3-1.6-0.4-2.6-0.4
			c-1.1,0-2.1,0.2-3,0.7c-0.9,0.4-1.6,1-2.2,1.7s-1.1,1.5-1.4,2.4C1042,351,1041.8,351.9,1041.7,352.8z"/>
		<path class="st7" d="M1075.7,369.1c-1.9-0.7-3.4-1.8-4.7-3.2c-1.3-1.4-2.3-3.1-3-5s-1-4-1-6.3c0-2.9,0.6-5.5,1.8-7.7
			c1.2-2.2,2.8-3.9,4.9-5.1s4.5-1.8,7.3-1.8c1.4,0,2.6,0.2,3.9,0.6c1.2,0.4,2.3,1,3.3,1.8s1.8,1.6,2.4,2.7h0.1v-16.8h6.5v26.6
			c0,3.2-0.6,5.9-1.9,8.2c-1.3,2.3-3,4.1-5.3,5.4c-2.3,1.2-4.9,1.9-7.8,1.9C1079.6,370.2,1077.5,369.9,1075.7,369.1z M1086.4,363.5
			c1.3-0.8,2.3-1.9,3-3.4c0.7-1.4,1.1-3.1,1.1-5s-0.4-3.6-1.1-5s-1.7-2.6-3-3.4s-2.8-1.2-4.4-1.2s-3.1,0.4-4.4,1.2
			c-1.3,0.8-2.3,2-3,3.4s-1.1,3.1-1.1,4.9c0,1.9,0.4,3.6,1.1,5s1.7,2.6,3,3.4s2.8,1.2,4.4,1.2
			C1083.6,364.7,1085.1,364.3,1086.4,363.5z"/>
		<path class="st7" d="M1119.9,369.6v-39.7h21.9c2,0,3.7,0.4,5.2,1.3s2.7,2.1,3.6,3.6s1.3,3.3,1.3,5.3c0,1.3-0.3,2.6-0.8,3.8
			c-0.5,1.2-1.3,2.3-2.2,3.1c-0.9,0.9-2,1.6-3.3,2.1c1.4,0.4,2.7,1.1,3.8,2.1c1.1,1,2,2.2,2.6,3.5c0.6,1.4,1,2.8,1,4.4
			c0,2-0.5,3.9-1.4,5.4c-0.9,1.6-2.2,2.8-3.8,3.7c-1.6,0.9-3.4,1.4-5.5,1.4L1119.9,369.6L1119.9,369.6z M1126.6,346.5h13
			c1.1,0,2-0.2,2.9-0.7s1.5-1.1,2-2c0.5-0.8,0.7-1.7,0.7-2.6c0-1-0.2-1.9-0.7-2.7c-0.5-0.8-1.1-1.4-1.9-1.9s-1.7-0.7-2.8-0.7h-13.2
			V346.5z M1126.6,363.5h13.9c1.1,0,2.1-0.3,3-0.8s1.5-1.2,2-2.1s0.7-1.8,0.7-2.8s-0.2-2-0.7-2.8s-1.2-1.5-2-2.1
			c-0.9-0.5-1.9-0.8-3.1-0.8h-13.8V363.5z"/>
		<path class="st7" d="M1169.9,381.1V370c-2.2-0.4-4.1-1.2-5.7-2.4c-1.6-1.2-2.8-2.6-3.7-4.4c-0.9-1.8-1.3-3.7-1.3-5.9v-16.7h6.5
			v16.6c0,1.5,0.3,2.8,1,3.9s1.5,2,2.7,2.6c1.1,0.6,2.3,0.9,3.7,0.9c1.3,0,2.5-0.3,3.7-0.9c1.1-0.6,2-1.5,2.7-2.6s1-2.4,1-3.9v-16.6
			h6.5v16.7c0,2.2-0.4,4.1-1.3,5.8c-0.9,1.7-2.1,3.2-3.7,4.4c-1.6,1.2-3.4,2-5.6,2.4v11.2H1169.9z"/>
	</g>
	<path class="st7" d="M1185.1,386H860.8c-1.2,0-2.1-1-2.1-2.1v-0.8c0-1.2,1-2.1,2.1-2.1h324.4c1.2,0,2.1,1,2.1,2.1v0.8
		C1187.2,385,1186.3,386,1185.1,386z"/>
</g>
</svg>
