<?xml version="1.0" encoding="utf-8"?>
<!-- Generator: Adobe Illustrator 24.3.0, SVG Export Plug-In . SVG Version: 6.00 Build 0)  -->
<svg version="1.1" id="Layer_1" xmlns="http://www.w3.org/2000/svg" xmlns:xlink="http://www.w3.org/1999/xlink" x="0px" y="0px"
	 viewBox="0 0 1440 900" style="enable-background:new 0 0 1440 900;" xml:space="preserve">
<style type="text/css">
	.st0{fill:#4D5359;}
	.st1{fill:#F16622;}
	.st2{fill:#F27D7E;}
	.st3{fill:#4DC1BD;}
	.st4{fill:#5C72B6;}
	.st5{fill:#FFCA1A;}
	.st6{fill:#28B24B;}
	.st7{fill:#3B97D2;}
</style>
<g id="Layer_2_copy_2">
	<path class="st0" d="M539.7,436.1v76.5c0,11-2.4,19.2-7.1,24.5s-11.7,8-20.8,8h-21c-10.2,0-18.2-3.1-24.1-9.3s-8.9-15.8-8.9-28.7
		c0-12.9,3-22.4,8.9-28.7c5.9-6.2,13.9-9.4,24.1-9.4h33.5v-33L539.7,436.1z M507.3,530.2c6.1,0,10.5-1.4,13.1-4.3
		c2.6-2.9,3.9-7.6,3.9-14.1v-28.1h-32.1c-6.6,0-11.4,1.8-14.5,5.5s-4.5,9.6-4.5,17.9c0,8.3,1.5,14.2,4.5,17.8
		c3,3.6,7.9,5.4,14.5,5.4L507.3,530.2z"/>
	<path class="st0" d="M604.3,469c4.1-0.1,8.2,0.5,12.1,1.9c3.1,1.1,6,2.9,8.3,5.3c2.2,2.3,3.8,5,4.7,8c1,3.2,1.5,6.6,1.4,9.9v35.7
		c0,2.4-0.2,4.7-0.7,7.1c-0.3,1.7-1.2,3.4-2.4,4.7c-1.3,1.3-3,2.2-4.8,2.7c-2.6,0.6-5.2,0.9-7.8,0.9h-35.6c-9,0-15.5-2.1-19.5-6.2
		s-6-9.8-6-17c-0.1-3.1,0.4-6.2,1.4-9.2c0.9-2.6,2.4-5,4.4-6.8c2.3-2,5-3.5,7.9-4.3c3.9-1.1,7.9-1.6,12-1.5h36.1v-5.8
		c0.1-2.7-0.9-5.4-2.7-7.5c-1.8-2-4.8-3-9-3h-45.5V469H604.3z M611.6,530.2c2.8,0,4.2-1.3,4.2-3.9v-14.2H580c-4,0-6.9,0.8-8.5,2.4
		c-1.7,1.7-2.6,4.1-2.5,6.5c-0.1,2.5,0.8,4.9,2.5,6.7c1.6,1.7,4.4,2.5,8.2,2.5H611.6z"/>
	<path class="st0" d="M649.4,469v-18h15.4v18h21v14.7h-21v36c0,4.3,0.8,7.3,2.4,8.9s4.2,2.5,7.8,2.5h10.5v14h-13.7
		c-3.4,0.1-6.8-0.4-10.2-1.3c-2.7-0.8-5.1-2.3-7-4.3c-2-2.3-3.3-5.1-4-8.1c-0.9-4.1-1.4-8.3-1.3-12.5v-35.1H639V469H649.4z"/>
	<path class="st0" d="M743.5,469c4.1-0.1,8.2,0.5,12.1,1.9c3.1,1.1,6,2.9,8.3,5.3c2.2,2.3,3.8,5,4.7,8c1,3.2,1.5,6.6,1.4,9.9v35.7
		c0,2.4-0.2,4.7-0.7,7.1c-0.3,1.8-1.2,3.4-2.4,4.7c-1.3,1.3-3,2.2-4.8,2.7c-2.6,0.6-5.2,0.9-7.8,0.9h-35.6c-9,0-15.5-2.1-19.5-6.2
		s-6-9.8-6-17c-0.1-3.1,0.4-6.2,1.4-9.2c0.9-2.6,2.4-5,4.4-6.8c2.3-2,5-3.5,7.9-4.3c3.9-1.1,7.9-1.6,12-1.5H755v-5.8
		c0.1-2.7-0.9-5.4-2.7-7.5c-1.8-2-4.8-3-9-3h-45.5V469H743.5z M750.9,530.2c2.8,0,4.2-1.3,4.2-3.9v-14.2h-35.8c-4,0-6.9,0.8-8.5,2.4
		c-1.7,1.7-2.6,4.1-2.5,6.6c-0.1,2.5,0.8,4.9,2.5,6.7c1.6,1.7,4.4,2.5,8.2,2.5L750.9,530.2z"/>
	<path class="st1" d="M800.6,525.5v19.6h-16.4v-19.6H800.6z"/>
	<path class="st0" d="M878.3,469v14.7h-42c-3.6,0-6.1,0.7-7.6,2.2s-2.3,3.6-2.3,6.5c0,2.7,0.7,4.7,2.2,6.1s4.3,2.1,8.6,2.1H855
		c4.4-0.1,8.8,0.5,13,1.7c3,0.9,5.7,2.5,8.1,4.6c1.9,1.9,3.3,4.2,4.1,6.8c0.8,2.7,1.2,5.5,1.2,8.4c0,3.1-0.4,6.3-1.4,9.3
		c-0.9,2.7-2.4,5.2-4.4,7.3c-2.2,2.1-4.9,3.8-7.8,4.8c-3.7,1.2-7.5,1.8-11.4,1.7h-44.2v-14.8h44.2c3.5,0,6.1-0.6,7.6-1.9
		c1.5-1.3,2.3-3.4,2.3-6.4s-0.8-5.3-2.5-6.5s-4.4-2-8.3-2h-18c-4.4,0.1-8.8-0.5-13-1.8c-3-1-5.8-2.7-8-4.9c-1.9-2-3.3-4.5-4.1-7.1
		c-0.8-2.7-1.2-5.5-1.2-8.4c0-6.8,1.9-12.2,5.8-16.2c3.8-4,10.2-6,19-6L878.3,469z"/>
	<path class="st0" d="M896.3,469v-18h15.4v18h21v14.7h-21v36c0,4.3,0.8,7.3,2.4,8.9s4.2,2.5,7.8,2.5h10.5v14h-13.7
		c-3.4,0.1-6.9-0.4-10.2-1.3c-2.7-0.8-5.1-2.3-7-4.3c-2-2.3-3.3-5.1-4-8.1c-0.9-4.1-1.4-8.3-1.3-12.5v-35.1H886V469H896.3z"/>
	<path class="st0" d="M990.5,469c4.1-0.1,8.2,0.5,12.1,1.9c3.1,1.1,5.9,2.9,8.3,5.3c2.2,2.3,3.8,5,4.7,8c1,3.2,1.5,6.6,1.4,9.9v35.7
		c0,2.4-0.2,4.7-0.6,7.1c-0.3,1.7-1.2,3.4-2.4,4.7c-1.3,1.3-3,2.2-4.8,2.7c-2.6,0.6-5.2,0.9-7.8,0.9h-35.6c-9,0-15.5-2.1-19.5-6.2
		s-6-9.8-6-17c0-3.1,0.4-6.2,1.4-9.2c0.9-2.6,2.4-5,4.4-6.8c2.3-2,5-3.5,7.9-4.3c3.9-1.1,7.9-1.6,12-1.5h36.1v-5.8
		c0.1-2.7-0.9-5.4-2.7-7.5c-1.8-2-4.8-3-9-3h-45.5V469H990.5z M997.9,530.2c2.8,0,4.2-1.3,4.2-3.9v-14.2h-35.9c-4,0-6.8,0.8-8.5,2.4
		c-1.7,1.7-2.6,4.1-2.5,6.6c-0.1,2.5,0.8,4.9,2.5,6.7c1.6,1.7,4.4,2.5,8.2,2.5L997.9,530.2z"/>
	<path class="st0" d="M1101.4,469v14.7h-37.7c-6.6,0-11.4,1.8-14.5,5.5s-4.5,9.6-4.5,17.9c0,8.3,1.5,14.2,4.5,17.8
		c3,3.6,7.8,5.4,14.5,5.4h37.7V545h-39.2c-10.2,0-18.2-3.1-24.1-9.3s-8.9-15.8-8.9-28.7c0-12.9,3-22.4,8.9-28.7
		c5.9-6.2,13.9-9.4,24.1-9.4L1101.4,469z"/>
	<path class="st0" d="M1129,436.1v64.5h7c3,0,5.5-0.1,7.4-0.2c1.7-0.1,3.4-0.4,5-1.1c1.3-0.6,2.5-1.5,3.4-2.6
		c1.2-1.5,2.3-3.1,3.2-4.8l12.7-22.9h16.6l-13.2,24c-1.6,3-3.6,5.8-5.9,8.3c-2.2,2.3-4.8,4-7.6,5.2c3.3,0.9,6.4,2.6,8.8,5.1
		c2.6,2.9,4.9,6.1,6.8,9.6l13.7,23.9h-17.1l-12.6-22.5c-0.9-1.7-2-3.3-3.3-4.8c-1-1.2-2.4-2.1-3.8-2.7c-1.8-0.7-3.6-1.1-5.5-1.3
		c-2.8-0.3-5.5-0.4-8.3-0.4h-7v31.7H1114v-109L1129,436.1L1129,436.1z"/>
	<path class="st0" d="M472.3,399.4h-0.4c-3.8-0.8-7.2-2.9-9.6-6c-2.7-3.4-4.1-7.7-4-12c-0.1-4.3,1.3-8.6,4-12c2.4-3.1,5.9-5.2,9.7-6
		h0.4c1.2-0.2,2.4-0.3,3.7-0.3c1.2,0,2.5,0.1,3.7,0.4h0.4c2.7,0.5,5.2,2,7,4.1v-4.2h6v36.1h-6.1v-4.1c-1.8,2.1-4.2,3.6-6.9,4.1h-0.4
		C477.3,399.7,474.8,399.7,472.3,399.4L472.3,399.4z M464.5,381.3c-0.1,3.4,1.1,6.6,3.4,9.2c2.2,2.2,5.2,3.4,8.2,3.2
		c3.1,0.2,6.1-1,8.2-3.2c2.1-2.6,3.1-5.8,2.9-9.1l0,0c0.2-3.3-0.8-6.5-2.9-9.1c-2.1-2.2-5.1-3.4-8.2-3.2c-3.1-0.2-6.1,1-8.2,3.2
		C465.7,374.7,464.5,377.9,464.5,381.3L464.5,381.3z M612.7,362.9l-13.3,36.8h-7.3l-13.2-36.8h6.5l10.3,28.8l10.4-28.8H612.7z
		 M650.1,383.8h-28c0,0.4,0,0.8,0.2,1.2c0.4,2.2,1.4,4.2,2.9,5.8c2.2,2,5.2,3,8.2,2.8c2.1,0,4.3-0.4,6.2-1.2
		c1.7-0.7,3.1-1.9,4.1-3.5l5.5,2.7c-1.5,2.6-3.7,4.6-6.4,6c-2.9,1.5-6.2,2.2-9.5,2.1c-4.7,0.2-9.3-1.5-12.7-4.9
		c-3.3-3.6-5.1-8.3-4.9-13.2v-0.3c-0.3-4.9,1.4-9.7,4.7-13.4c6.8-6.8,17.8-6.7,24.6,0.1c2.5,2.6,4.2,5.9,4.8,9.4
		c0.2,1.2,0.3,2.4,0.3,3.6L650.1,383.8z M643.7,378.1c0-0.3,0-0.6,0-0.9v-0.3c-0.9-5-5.5-8.5-10.6-8c-2.8-0.2-5.6,0.8-7.7,2.6
		c-1.5,1.5-2.5,3.3-2.9,5.4c-0.1,0.4-0.2,0.8-0.2,1.2L643.7,378.1z M689.9,383.8h-28.2c0,0.4,0,0.8,0.2,1.2c0.4,2.2,1.4,4.2,2.9,5.8
		c2.3,2,5.3,3,8.3,2.8c2.1,0,4.2-0.4,6.2-1.2c1.7-0.7,3.1-1.9,4.1-3.5l5.5,2.7c-1.5,2.6-3.7,4.6-6.3,6c-2.9,1.5-6.2,2.2-9.5,2.1
		c-4.7,0.2-9.3-1.5-12.7-4.9c-3.3-3.6-5-8.3-4.9-13.2v-0.3c-0.3-4.9,1.4-9.7,4.7-13.4c3.3-3.4,7.8-5.2,12.5-5
		c4.1-0.2,8.1,1.2,11.3,3.8c3.1,2.8,5.1,6.5,5.6,10.6c0.2,1.2,0.3,2.4,0.3,3.6L689.9,383.8z M683.4,378.1c0-0.3,0-0.6,0-0.9v-0.3
		c-0.9-5-5.5-8.5-10.6-8c-5.1-0.5-9.7,3-10.6,8c-0.1,0.4-0.2,0.8-0.2,1.2L683.4,378.1z M711.4,362.7c-3.5,0-7,1.2-9.7,3.4v-2.9h-6
		v36.5h6v-21.2c0-5.4,4.4-9.7,9.7-9.7c5.4,0,9.7,4.4,9.7,9.7l0,0v21.3h6v-21.3C727.2,369.7,720.1,362.7,711.4,362.7L711.4,362.7
		L711.4,362.7L711.4,362.7z M518,399.7c-1.3,0-2.5-0.1-3.7-0.3h-0.4c-2.7-0.5-5.1-2-6.9-4.1v15.1h-6.1v-47.1h6.2v4.1
		c1.8-2.1,4.3-3.6,7-4.1h0.3c1.2-0.2,2.5-0.4,3.7-0.4s2.5,0.1,3.7,0.3h0.4c3.9,0.8,7.3,2.9,9.7,6c2.7,3.4,4.1,7.7,4,12
		c0.1,4.3-1.3,8.6-4,12c-2.3,3.1-5.7,5.3-9.5,6H522C520.6,399.5,519.3,399.7,518,399.7L518,399.7z M526.2,372.1
		c-2.1-2.2-5.2-3.4-8.2-3.2c-3.1-0.2-6.1,1-8.2,3.2c-2.1,2.6-3.1,5.8-2.9,9.1l0,0c-0.2,3.3,0.8,6.5,2.9,9.1c2.1,2.2,5.1,3.4,8.2,3.2
		c3.1,0.2,6.1-1,8.2-3.2C530.7,385.1,530.7,377.3,526.2,372.1L526.2,372.1z M558.6,399.7c-1.3,0-2.5-0.1-3.7-0.3h-0.4
		c-2.7-0.5-5.1-2-6.9-4.1v15.1h-6.1v-47.1h6.1v4.1c1.8-2.1,4.3-3.6,7-4.1h0.3c1.2-0.2,2.5-0.4,3.7-0.4s2.5,0.1,3.7,0.3h0.4
		c3.9,0.8,7.3,2.9,9.7,6c2.7,3.4,4.1,7.7,4,12c0.1,4.3-1.3,8.6-4,12c-2.4,3.1-5.8,5.3-9.6,6h-0.4c-1.3,0.3-2.6,0.4-3.9,0.5H558.6z
		 M566.8,372.1c-4.6-4.3-11.8-4.3-16.4,0c-2.1,2.6-3.1,5.8-2.9,9.1l0,0c-0.2,3.3,0.8,6.5,2.9,9.1c4.6,4.3,11.8,4.3,16.4,0
		C571.4,385.1,571.4,377.3,566.8,372.1L566.8,372.1z"/>
	<path class="st2" d="M296.8,402.4L296.8,402.4c7.4-2.7,15.6,1.1,18.3,8.5l0,0l55.4,152.2c2.7,7.4-1.1,15.6-8.5,18.3l0,0l0,0
		c-7.4,2.7-15.6-1.1-18.3-8.5l-55.4-152.2C285.5,413.2,289.4,405.1,296.8,402.4z"/>
	<path class="st3" d="M307.7,402.8L307.7,402.8c7.2,3.3,10.3,11.8,6.9,19l0,0L280.5,495c-3.3,7.2-11.8,10.2-19,6.9l0,0l0,0
		c-7.2-3.3-10.2-11.8-6.9-19l0,0l34.1-73.2C292,402.5,300.6,399.5,307.7,402.8z"/>
	<path class="st4" d="M314.6,409.6l-0.3-0.6l-0.3-0.6l-0.4-0.6c-0.1-0.2-0.2-0.4-0.4-0.6l-0.5-0.6l-0.4-0.5l-0.5-0.5l-0.6-0.5
		l-0.5-0.4c-0.2-0.2-0.4-0.3-0.6-0.5l-0.6-0.4l-0.6-0.3l-1.2-0.6l0,0l-1.2-0.5h-8.3l-1.3,0.5l0,0l-1.3,0.5h-0.5l-0.7,0.4l-0.6,0.4
		l-0.6,0.4l-0.5,0.5l-0.6,0.4l-0.5,0.5l-0.6,0.6l-0.4,0.5l-0.5,0.6l-0.3,0.6c-0.1,0.2-0.3,0.4-0.4,0.6c-0.2,0.3-0.4,0.7-0.6,1.1
		c-1.7,3.5-1.9,7.5-0.6,11.2l11.8,32.4l14.6-31.3c1.7-3.5,1.8-7.6,0.4-11.2L314.6,409.6z"/>
	<path class="st4" d="M273.6,476L273.6,476c7.2,3.3,10.2,11.8,6.9,19l0,0l0,0c-3.3,7.2-11.8,10.2-19,6.9l0,0l0,0
		c-7.2-3.3-10.2-11.8-6.9-19l0,0l0,0C257.9,475.8,266.4,472.7,273.6,476C273.5,476,273.6,476,273.6,476z"/>
	<path class="st4" d="M352.2,554.5L352.2,554.5c7.4-2.7,15.6,1.1,18.3,8.5l0,0l0,0c2.7,7.4-1.1,15.6-8.5,18.3l0,0
		c-7.4,2.7-15.6-1.1-18.3-8.5l0,0C341,565.4,344.8,557.2,352.2,554.5z"/>
	<path class="st5" d="M395.9,507.6L395.9,507.6c-7.4,2.7-15.6-1.1-18.3-8.5l0,0L322.2,347c-2.7-7.4,1.1-15.6,8.5-18.3l0,0l0,0
		c7.4-2.7,15.6,1.1,18.3,8.5l0,0l55.4,152.2C407.1,496.7,403.3,504.9,395.9,507.6L395.9,507.6z"/>
	<path class="st3" d="M385,507L385,507c-7.2-3.3-10.3-11.8-6.9-19l0,0l34.1-73.2c3.3-7.2,11.8-10.2,19-6.9l0,0l0,0
		c7.2,3.3,10.3,11.8,6.9,19l0,0L404,500.1C400.7,507.2,392.2,510.3,385,507L385,507z"/>
	<path class="st6" d="M404.4,489.2l-11.8-32.4L378,488c-1.7,3.5-1.9,7.6-0.5,11.2c0.1,0.4,0.3,0.8,0.5,1.2c0,0.2,0,0.4,0,0.6
		l0.4,0.6l0.4,0.6c0.1,0.2,0.2,0.4,0.4,0.6l0.5,0.6l0.5,0.5l0.5,0.5l0.5,0.5l0.6,0.4c0.2,0.2,0.4,0.3,0.6,0.5l0.6,0.5l0.6,0.3
		l1.2,0.7l0,0l1.2,0.5h2.1l0.9,0.4h5.5l1.3-0.4l0,0l1.3-0.5h0.5l0.7-0.4l0.6-0.4l0.6-0.4l0.5-0.5l0.6-0.5l0.5-0.5l0.6-0.6l0.4-0.5
		c0.2-0.2,0.3-0.4,0.5-0.6s0.3-0.4,0.4-0.6c0.2-0.2,0.3-0.4,0.4-0.6c0.2-0.3,0.4-0.7,0.6-1.1C405.5,497.2,405.8,493,404.4,489.2z"/>
	<path class="st6" d="M419.1,433.8L419.1,433.8c-7.2-3.3-10.3-11.8-6.9-19l0,0l0,0c3.3-7.1,11.8-10.2,19-6.9l0,0l0,0
		c7.1,3.3,10.2,11.8,6.9,19l0,0l0,0C434.8,434.1,426.3,437.2,419.1,433.8C419.2,433.8,419.1,433.8,419.1,433.8z"/>
	<path class="st6" d="M340.8,354.6L340.8,354.6c-7.4,2.7-15.6-1.1-18.3-8.6l0,0l0,0c-2.7-7.4,1.2-15.6,8.6-18.3l0,0
		c7.4-2.7,15.6,1.1,18.3,8.6l0,0l0,0C352.1,343.7,348.2,351.9,340.8,354.6L340.8,354.6z"/>
	<g>
		<path class="st7" d="M858.7,369.6v-39.7h16.7c2.5,0,4.8,0.6,6.9,1.7c2.1,1.2,3.8,2.8,5,4.8c1.2,2.1,1.9,4.4,1.9,7.2
			c0,2.7-0.6,5.1-1.8,7.1c-1.2,2.1-2.9,3.7-5,4.8c-2.1,1.2-4.4,1.7-7.1,1.7h-9.9v12.2h-6.7V369.6z M865.4,351.4h9.1
			c1.4,0,2.8-0.3,4-0.9s2.2-1.5,2.9-2.6c0.7-1.2,1-2.6,1-4.2s-0.3-3-1-4.2s-1.6-2-2.8-2.7c-1.2-0.6-2.5-0.9-3.9-0.9h-9.1v15.5H865.4
			z"/>
		<path class="st7" d="M907.5,370.2c-2.9,0-5.6-0.7-7.9-2c-2.3-1.3-4.1-3.2-5.5-5.4c-1.3-2.3-2-4.8-2-7.7s0.7-5.4,2-7.7
			c1.3-2.3,3.2-4.1,5.5-5.4s4.9-2,7.9-2s5.6,0.7,7.9,2c2.3,1.3,4.1,3.2,5.5,5.4c1.3,2.3,2,4.8,2,7.7s-0.7,5.4-2,7.7
			c-1.3,2.3-3.2,4.1-5.5,5.4C913.1,369.6,910.5,370.2,907.5,370.2z M907.5,364.7c1.8,0,3.4-0.4,4.7-1.3s2.3-2,3.1-3.5
			c0.7-1.5,1.1-3.1,1.1-4.8c0-1.8-0.4-3.4-1.1-4.8c-0.7-1.5-1.7-2.6-3.1-3.5c-1.3-0.9-2.9-1.3-4.7-1.3s-3.3,0.4-4.6,1.3
			s-2.3,2-3.1,3.4c-0.7,1.4-1.1,3.1-1.1,4.9s0.4,3.4,1.1,4.8c0.7,1.5,1.8,2.6,3.1,3.5C904.1,364.3,905.7,364.7,907.5,364.7z"/>
		<path class="st7" d="M939.3,370.2c-1.9,0-3.6-0.4-5.2-1.1c-1.5-0.7-2.8-1.9-3.7-3.4s-1.4-3.5-1.4-5.9v-19.2h6.5v20.2
			c0,0.8,0.2,1.4,0.5,2s0.8,1,1.3,1.3s1.2,0.5,1.8,0.5s1.2-0.2,1.8-0.5s1-0.7,1.4-1.3c0.3-0.6,0.5-1.3,0.5-2v-10.7
			c0-2.2,0.4-4.1,1.3-5.6c0.9-1.5,2-2.7,3.6-3.5c1.5-0.8,3.3-1.2,5.2-1.2c2,0,3.8,0.4,5.3,1.2c1.5,0.8,2.7,1.9,3.6,3.5
			c0.9,1.5,1.3,3.4,1.3,5.6v10.7c0,0.8,0.2,1.4,0.5,2s0.8,1,1.4,1.3c0.6,0.3,1.2,0.5,1.9,0.5c0.6,0,1.2-0.2,1.8-0.5
			c0.5-0.3,1-0.7,1.3-1.3c0.3-0.6,0.5-1.3,0.5-2v-20.2h6.5v19.2c0,2.4-0.5,4.3-1.4,5.9c-0.9,1.5-2.1,2.7-3.7,3.4
			c-1.5,0.7-3.3,1.1-5.1,1.1c-1.9,0-3.6-0.4-5.1-1.1s-2.8-1.9-3.7-3.4s-1.4-3.5-1.4-5.9v-10.5c0-0.8-0.2-1.5-0.5-2.1
			c-0.3-0.5-0.8-1-1.3-1.3s-1.2-0.5-1.8-0.5s-1.2,0.2-1.8,0.5s-1,0.7-1.4,1.3c-0.3,0.5-0.5,1.2-0.5,2.1v10.5c0,2.4-0.5,4.3-1.4,5.9
			c-0.9,1.5-2.2,2.7-3.7,3.4C942.8,369.9,941.1,370.2,939.3,370.2z"/>
		<path class="st7" d="M999.5,369.6c-3.2,0-6.1-0.6-8.5-1.8c-2.4-1.2-4.3-2.9-5.7-5.1s-2-4.7-2-7.5c0-3,0.6-5.6,1.8-7.9s2.9-4,5-5.3
			s4.6-1.9,7.3-1.9c3.1,0,5.6,0.7,7.7,2c2,1.3,3.5,3.1,4.4,5.3c1,2.2,1.4,4.7,1.4,7.5c0,0.4,0,0.8-0.1,1.3c0,0.5-0.1,0.9-0.2,1.1
			h-20.5c0.2,1.5,0.8,2.8,1.6,3.8c0.9,1,2,1.8,3.3,2.3s2.8,0.8,4.4,0.8h7.8v5.6h-7.7V369.6z M990.1,352.8h14.3
			c0-0.7-0.1-1.4-0.3-2.2c-0.2-0.7-0.4-1.4-0.8-2c-0.4-0.6-0.8-1.2-1.4-1.7c-0.5-0.5-1.2-0.9-2-1.1c-0.8-0.3-1.6-0.4-2.6-0.4
			c-1.1,0-2.1,0.2-3,0.7c-0.9,0.4-1.6,1-2.2,1.7c-0.6,0.7-1.1,1.5-1.4,2.4C990.4,351,990.2,351.9,990.1,352.8z"/>
		<path class="st7" d="M1016.7,369.6v-20.7c0-2.6,0.7-4.6,2.2-6c1.5-1.5,3.5-2.2,6-2.2h7v5.6h-5.8c-0.9,0-1.6,0.3-2.1,0.8
			s-0.8,1.2-0.8,2.2v20.4L1016.7,369.6L1016.7,369.6z"/>
		<path class="st7" d="M1051.1,369.6c-3.2,0-6.1-0.6-8.5-1.8c-2.4-1.2-4.3-2.9-5.7-5.1c-1.4-2.2-2-4.7-2-7.5c0-3,0.6-5.6,1.8-7.9
			c1.2-2.3,2.9-4,5-5.3s4.6-1.9,7.3-1.9c3.1,0,5.6,0.7,7.7,2c2,1.3,3.5,3.1,4.4,5.3c1,2.2,1.4,4.7,1.4,7.5c0,0.4,0,0.8-0.1,1.3
			c0,0.5-0.1,0.9-0.2,1.1h-20.5c0.2,1.5,0.8,2.8,1.6,3.8s2,1.8,3.3,2.3s2.8,0.8,4.4,0.8h7.8v5.6h-7.7V369.6z M1041.7,352.8h14.3
			c0-0.7-0.1-1.4-0.3-2.2c-0.2-0.7-0.4-1.4-0.8-2s-0.8-1.2-1.4-1.7c-0.5-0.5-1.2-0.9-2-1.1c-0.8-0.3-1.6-0.4-2.6-0.4
			c-1.1,0-2.1,0.2-3,0.7c-0.9,0.4-1.6,1-2.2,1.7s-1.1,1.5-1.4,2.4C1042,351,1041.8,351.9,1041.7,352.8z"/>
		<path class="st7" d="M1075.7,369.1c-1.9-0.7-3.4-1.8-4.7-3.2c-1.3-1.4-2.3-3.1-3-5s-1-4-1-6.3c0-2.9,0.6-5.5,1.8-7.7
			c1.2-2.2,2.8-3.9,4.9-5.1s4.5-1.8,7.3-1.8c1.4,0,2.6,0.2,3.9,0.6c1.2,0.4,2.3,1,3.3,1.8s1.8,1.6,2.4,2.7h0.1v-16.8h6.5v26.6
			c0,3.2-0.6,5.9-1.9,8.2c-1.3,2.3-3,4.1-5.3,5.4c-2.3,1.2-4.9,1.9-7.8,1.9C1079.6,370.2,1077.5,369.9,1075.7,369.1z M1086.4,363.5
			c1.3-0.8,2.3-1.9,3-3.4c0.7-1.4,1.1-3.1,1.1-5s-0.4-3.6-1.1-5s-1.7-2.6-3-3.4s-2.8-1.2-4.4-1.2s-3.1,0.4-4.4,1.2
			c-1.3,0.8-2.3,2-3,3.4s-1.1,3.1-1.1,4.9c0,1.9,0.4,3.6,1.1,5s1.7,2.6,3,3.4s2.8,1.2,4.4,1.2
			C1083.6,364.7,1085.1,364.3,1086.4,363.5z"/>
		<path class="st7" d="M1119.9,369.6v-39.7h21.9c2,0,3.7,0.4,5.2,1.3s2.7,2.1,3.6,3.6s1.3,3.3,1.3,5.3c0,1.3-0.3,2.6-0.8,3.8
			c-0.5,1.2-1.3,2.3-2.2,3.1c-0.9,0.9-2,1.6-3.3,2.1c1.4,0.4,2.7,1.1,3.8,2.1c1.1,1,2,2.2,2.6,3.5c0.6,1.4,1,2.8,1,4.4
			c0,2-0.5,3.9-1.4,5.4c-0.9,1.6-2.2,2.8-3.8,3.7c-1.6,0.9-3.4,1.4-5.5,1.4L1119.9,369.6L1119.9,369.6z M1126.6,346.5h13
			c1.1,0,2-0.2,2.9-0.7s1.5-1.1,2-2c0.5-0.8,0.7-1.7,0.7-2.6c0-1-0.2-1.9-0.7-2.7c-0.5-0.8-1.1-1.4-1.9-1.9s-1.7-0.7-2.8-0.7h-13.2
			V346.5z M1126.6,363.5h13.9c1.1,0,2.1-0.3,3-0.8s1.5-1.2,2-2.1s0.7-1.8,0.7-2.8s-0.2-2-0.7-2.8s-1.2-1.5-2-2.1
			c-0.9-0.5-1.9-0.8-3.1-0.8h-13.8V363.5z"/>
		<path class="st7" d="M1169.9,381.1V370c-2.2-0.4-4.1-1.2-5.7-2.4c-1.6-1.2-2.8-2.6-3.7-4.4c-0.9-1.8-1.3-3.7-1.3-5.9v-16.7h6.5
			v16.6c0,1.5,0.3,2.8,1,3.9s1.5,2,2.7,2.6c1.1,0.6,2.3,0.9,3.7,0.9c1.3,0,2.5-0.3,3.7-0.9c1.1-0.6,2-1.5,2.7-2.6s1-2.4,1-3.9v-16.6
			h6.5v16.7c0,2.2-0.4,4.1-1.3,5.8c-0.9,1.7-2.1,3.2-3.7,4.4c-1.6,1.2-3.4,2-5.6,2.4v11.2H1169.9z"/>
	</g>
	<path class="st7" d="M1185.1,386H860.8c-1.2,0-2.1-1-2.1-2.1v-0.8c0-1.2,1-2.1,2.1-2.1h324.4c1.2,0,2.1,1,2.1,2.1v0.8
		C1187.2,385,1186.3,386,1185.1,386z"/>
</g>
</svg>
